<?xml version="1.0" encoding="UTF-8" standalone="no"?>
<!DOCTYPE svg PUBLIC "-//W3C//DTD SVG 1.1//EN"
 "http://www.w3.org/Graphics/SVG/1.1/DTD/svg11.dtd">
<!-- Generated by graphviz version 2.43.0 (0)
 -->
<!-- Title: %3 Pages: 1 -->
<svg width="493pt" height="534pt"
 viewBox="0.00 0.00 492.87 534.27" xmlns="http://www.w3.org/2000/svg" xmlns:xlink="http://www.w3.org/1999/xlink">
<g id="graph0" class="graph" transform="scale(1 1) rotate(0) translate(4 530.27)">
<title>%3</title>
<polygon fill="white" stroke="transparent" points="-4,4 -4,-530.27 488.87,-530.27 488.87,4 -4,4"/>
<!-- librarything_collect -->
<g id="node1" class="node">
<title>librarything_collect</title>
<polygon fill="lightblue" stroke="black" points="166.35,-423.24 124.82,-454.3 41.75,-454.3 0.22,-423.24 41.75,-392.19 124.82,-392.19 166.35,-423.24"/>
<text text-anchor="middle" x="83.28" y="-427.04" font-family="Times,serif" font-size="14.00">librarything</text>
<text text-anchor="middle" x="83.28" y="-412.04" font-family="Times,serif" font-size="14.00">(collect)</text>
</g>
<!-- librarything_retrieve -->
<g id="node4" class="node">
<title>librarything_retrieve</title>
<polygon fill="orange" stroke="black" points="166.35,-325.19 124.82,-356.24 41.75,-356.24 0.22,-325.19 41.75,-294.13 124.82,-294.13 166.35,-325.19"/>
<text text-anchor="middle" x="83.28" y="-328.99" font-family="Times,serif" font-size="14.00">librarything</text>
<text text-anchor="middle" x="83.28" y="-313.99" font-family="Times,serif" font-size="14.00">(retrieve)</text>
</g>
<!-- librarything_collect&#45;&gt;librarything_retrieve -->
<g id="edge2" class="edge">
<title>librarything_collect&#45;&gt;librarything_retrieve</title>
<path fill="none" stroke="black" d="M83.28,-392.11C83.28,-384.06 83.28,-375.21 83.28,-366.7"/>
<polygon fill="black" stroke="black" points="86.78,-366.54 83.28,-356.54 79.78,-366.54 86.78,-366.54"/>
</g>
<!-- recall_collect -->
<g id="node2" class="node">
<title>recall_collect</title>
<polygon fill="lightgreen" stroke="black" points="472.62,-423.24 442.45,-454.3 382.11,-454.3 351.94,-423.24 382.11,-392.19 442.45,-392.19 472.62,-423.24"/>
<text text-anchor="middle" x="412.28" y="-427.04" font-family="Times,serif" font-size="14.00">recall</text>
<text text-anchor="middle" x="412.28" y="-412.04" font-family="Times,serif" font-size="14.00">(collect)</text>
</g>
<!-- recall_retrieve -->
<g id="node5" class="node">
<title>recall_retrieve</title>
<polygon fill="lightgreen" stroke="black" points="484.95,-325.19 450.62,-356.24 381.95,-356.24 347.61,-325.19 381.95,-294.13 450.62,-294.13 484.95,-325.19"/>
<text text-anchor="middle" x="416.28" y="-328.99" font-family="Times,serif" font-size="14.00">recall</text>
<text text-anchor="middle" x="416.28" y="-313.99" font-family="Times,serif" font-size="14.00">(retrieve)</text>
</g>
<!-- recall_collect&#45;&gt;recall_retrieve -->
<g id="edge8" class="edge">
<title>recall_collect&#45;&gt;recall_retrieve</title>
<path fill="none" stroke="black" d="M413.54,-392.11C413.87,-384.06 414.24,-375.21 414.6,-366.7"/>
<polygon fill="black" stroke="black" points="418.1,-366.68 415.02,-356.54 411.11,-366.39 418.1,-366.68"/>
</g>
<!-- neoreader_retrieve -->
<g id="node6" class="node">
<title>neoreader_retrieve</title>
<polygon fill="orange" stroke="black" points="330.12,-325.19 293.7,-356.24 220.86,-356.24 184.45,-325.19 220.86,-294.13 293.7,-294.13 330.12,-325.19"/>
<text text-anchor="middle" x="257.28" y="-328.99" font-family="Times,serif" font-size="14.00">neoreader</text>
<text text-anchor="middle" x="257.28" y="-313.99" font-family="Times,serif" font-size="14.00">(retrieve)</text>
</g>
<!-- recall_collect&#45;&gt;neoreader_retrieve -->
<g id="edge10" class="edge">
<title>recall_collect&#45;&gt;neoreader_retrieve</title>
<path fill="none" stroke="black" d="M375.16,-399.23C354.92,-386.69 329.58,-370.99 307.58,-357.36"/>
<polygon fill="black" stroke="black" points="309.37,-354.35 299.02,-352.06 305.68,-360.3 309.37,-354.35"/>
</g>
<!-- neoreader_collect -->
<g id="node3" class="node">
<title>neoreader_collect</title>
<polygon fill="lightblue" stroke="black" points="334.12,-423.24 297.7,-454.3 224.86,-454.3 188.45,-423.24 224.86,-392.19 297.7,-392.19 334.12,-423.24"/>
<text text-anchor="middle" x="261.28" y="-427.04" font-family="Times,serif" font-size="14.00">neoreader</text>
<text text-anchor="middle" x="261.28" y="-412.04" font-family="Times,serif" font-size="14.00">(collect)</text>
</g>
<!-- neoreader_collect&#45;&gt;recall_retrieve -->
<g id="edge9" class="edge">
<title>neoreader_collect&#45;&gt;recall_retrieve</title>
<path fill="none" stroke="black" d="M302.82,-396.5C322.67,-384.2 346.57,-369.39 367.3,-356.54"/>
<polygon fill="black" stroke="black" points="369.31,-359.41 375.97,-351.17 365.63,-353.46 369.31,-359.41"/>
</g>
<!-- neoreader_collect&#45;&gt;neoreader_retrieve -->
<g id="edge11" class="edge">
<title>neoreader_collect&#45;&gt;neoreader_retrieve</title>
<path fill="none" stroke="black" d="M260.03,-392.11C259.69,-384.06 259.32,-375.21 258.97,-366.7"/>
<polygon fill="black" stroke="black" points="262.46,-366.39 258.55,-356.54 255.47,-366.68 262.46,-366.39"/>
</g>
<!-- neoreader_consume -->
<g id="node7" class="node">
<title>neoreader_consume</title>
<polygon fill="lightgreen" stroke="black" points="330.75,-227.13 294.02,-258.19 220.55,-258.19 183.81,-227.13 220.55,-196.08 294.02,-196.08 330.75,-227.13"/>
<text text-anchor="middle" x="257.28" y="-230.93" font-family="Times,serif" font-size="14.00">neoreader</text>
<text text-anchor="middle" x="257.28" y="-215.93" font-family="Times,serif" font-size="14.00">(consume)</text>
</g>
<!-- librarything_retrieve&#45;&gt;neoreader_consume -->
<g id="edge3" class="edge">
<title>librarything_retrieve&#45;&gt;neoreader_consume</title>
<path fill="none" stroke="black" d="M130.37,-298.19C153.31,-285.53 180.97,-270.26 204.6,-257.22"/>
<polygon fill="black" stroke="black" points="206.38,-260.23 213.45,-252.33 203,-254.1 206.38,-260.23"/>
</g>
<!-- recall_retrieve&#45;&gt;neoreader_consume -->
<g id="edge12" class="edge">
<title>recall_retrieve&#45;&gt;neoreader_consume</title>
<path fill="none" stroke="black" d="M375.75,-299.7C355.29,-287.34 330.26,-272.22 308.48,-259.06"/>
<polygon fill="black" stroke="black" points="310.06,-255.93 299.69,-253.75 306.44,-261.92 310.06,-255.93"/>
</g>
<!-- neoreader_retrieve&#45;&gt;neoreader_consume -->
<g id="edge13" class="edge">
<title>neoreader_retrieve&#45;&gt;neoreader_consume</title>
<path fill="none" stroke="black" d="M257.28,-294.06C257.28,-286 257.28,-277.16 257.28,-268.64"/>
<polygon fill="black" stroke="black" points="260.78,-268.49 257.28,-258.49 253.78,-268.49 260.78,-268.49"/>
</g>
<!-- readwise_extract -->
<g id="node8" class="node">
<title>readwise_extract</title>
<polygon fill="lightgreen" stroke="black" points="323.56,-129.08 290.42,-160.13 224.15,-160.13 191.01,-129.08 224.15,-98.03 290.42,-98.03 323.56,-129.08"/>
<text text-anchor="middle" x="257.28" y="-132.88" font-family="Times,serif" font-size="14.00">readwise</text>
<text text-anchor="middle" x="257.28" y="-117.88" font-family="Times,serif" font-size="14.00">(extract)</text>
</g>
<!-- neoreader_consume&#45;&gt;readwise_extract -->
<g id="edge4" class="edge">
<title>neoreader_consume&#45;&gt;readwise_extract</title>
<path fill="none" stroke="black" d="M257.28,-196.01C257.28,-187.95 257.28,-179.11 257.28,-170.59"/>
<polygon fill="black" stroke="black" points="260.78,-170.43 257.28,-160.43 253.78,-170.43 260.78,-170.43"/>
</g>
<!-- obsidian_refine -->
<g id="node9" class="node">
<title>obsidian_refine</title>
<polygon fill="lightgreen" stroke="black" points="252.02,-31.03 220.65,-62.08 157.91,-62.08 126.54,-31.03 157.91,0.03 220.65,0.03 252.02,-31.03"/>
<text text-anchor="middle" x="189.28" y="-34.83" font-family="Times,serif" font-size="14.00">obsidian</text>
<text text-anchor="middle" x="189.28" y="-19.83" font-family="Times,serif" font-size="14.00">(refine)</text>
</g>
<!-- readwise_extract&#45;&gt;obsidian_refine -->
<g id="edge5" class="edge">
<title>readwise_extract&#45;&gt;obsidian_refine</title>
<path fill="none" stroke="black" d="M235.95,-97.95C229.81,-89.27 223.02,-79.69 216.57,-70.57"/>
<polygon fill="black" stroke="black" points="219.4,-68.52 210.77,-62.38 213.69,-72.56 219.4,-68.52"/>
</g>
<!-- recall_refine -->
<g id="node10" class="node">
<title>recall_refine</title>
<polygon fill="lightgreen" stroke="black" points="380.83,-31.03 353.05,-62.08 297.51,-62.08 269.74,-31.03 297.51,0.03 353.05,0.03 380.83,-31.03"/>
<text text-anchor="middle" x="325.28" y="-34.83" font-family="Times,serif" font-size="14.00">recall</text>
<text text-anchor="middle" x="325.28" y="-19.83" font-family="Times,serif" font-size="14.00">(refine)</text>
</g>
<!-- readwise_extract&#45;&gt;recall_refine -->
<g id="edge14" class="edge">
<title>readwise_extract&#45;&gt;recall_refine</title>
<path fill="none" stroke="black" d="M278.61,-97.95C284.75,-89.27 291.54,-79.69 297.99,-70.57"/>
<polygon fill="black" stroke="black" points="300.87,-72.56 303.8,-62.38 295.16,-68.52 300.87,-72.56"/>
</g>
<!-- source_book -->
<g id="node11" class="node">
<title>source_book</title>
<polygon fill="none" stroke="black" points="110.28,-526.27 56.28,-526.27 56.28,-490.27 110.28,-490.27 110.28,-526.27"/>
<text text-anchor="middle" x="83.28" y="-504.57" font-family="Times,serif" font-size="14.00">Book</text>
</g>
<!-- source_book&#45;&gt;librarything_collect -->
<g id="edge1" class="edge">
<title>source_book&#45;&gt;librarything_collect</title>
<path fill="none" stroke="black" d="M83.28,-490.07C83.28,-482.61 83.28,-473.54 83.28,-464.55"/>
<polygon fill="black" stroke="black" points="86.78,-464.52 83.28,-454.52 79.78,-464.52 86.78,-464.52"/>
</g>
<!-- source_research_paper -->
<g id="node12" class="node">
<title>source_research_paper</title>
<polygon fill="none" stroke="black" points="464.28,-526.27 336.28,-526.27 336.28,-490.27 464.28,-490.27 464.28,-526.27"/>
<text text-anchor="middle" x="400.28" y="-504.57" font-family="Times,serif" font-size="14.00">Research Paper</text>
</g>
<!-- source_research_paper&#45;&gt;recall_collect -->
<g id="edge6" class="edge">
<title>source_research_paper&#45;&gt;recall_collect</title>
<path fill="none" stroke="black" d="M402.77,-490.07C403.85,-482.61 405.16,-473.54 406.46,-464.55"/>
<polygon fill="black" stroke="black" points="409.94,-464.92 407.91,-454.52 403.01,-463.91 409.94,-464.92"/>
</g>
<!-- source_research_paper&#45;&gt;neoreader_collect -->
<g id="edge7" class="edge">
<title>source_research_paper&#45;&gt;neoreader_collect</title>
<path fill="none" stroke="black" d="M371.82,-490.27C354.66,-480.02 332.3,-466.66 312.19,-454.65"/>
<polygon fill="black" stroke="black" points="313.81,-451.54 303.43,-449.42 310.22,-457.55 313.81,-451.54"/>
</g>
<!-- source_document -->
<g id="node13" class="node">
<title>source_document</title>
<polygon fill="none" stroke="black" points="305.78,-526.27 216.78,-526.27 216.78,-490.27 305.78,-490.27 305.78,-526.27"/>
<text text-anchor="middle" x="261.28" y="-504.57" font-family="Times,serif" font-size="14.00">Document</text>
</g>
<!-- source_document&#45;&gt;neoreader_collect -->
<g id="edge15" class="edge">
<title>source_document&#45;&gt;neoreader_collect</title>
<path fill="none" stroke="black" d="M261.28,-490.07C261.28,-482.61 261.28,-473.54 261.28,-464.55"/>
<polygon fill="black" stroke="black" points="264.78,-464.52 261.28,-454.52 257.78,-464.52 264.78,-464.52"/>
</g>
</g>
</svg>
