<?xml version="1.0" encoding="UTF-8" standalone="no"?>
<!DOCTYPE svg PUBLIC "-//W3C//DTD SVG 1.1//EN"
 "http://www.w3.org/Graphics/SVG/1.1/DTD/svg11.dtd">
<!-- Generated by graphviz version 2.43.0 (0)
 -->
<!-- Title: %3 Pages: 1 -->
<svg width="262pt" height="534pt"
 viewBox="0.00 0.00 261.58 534.27" xmlns="http://www.w3.org/2000/svg" xmlns:xlink="http://www.w3.org/1999/xlink">
<g id="graph0" class="graph" transform="scale(1 1) rotate(0) translate(4 530.27)">
<title>%3</title>
<polygon fill="white" stroke="transparent" points="-4,4 -4,-530.27 257.58,-530.27 257.58,4 -4,4"/>
<!-- recall_collect -->
<g id="node1" class="node">
<title>recall_collect</title>
<polygon fill="lightgreen" stroke="black" points="107.45,-423.24 82.08,-454.3 31.33,-454.3 5.96,-423.24 31.33,-392.19 82.08,-392.19 107.45,-423.24"/>
<text text-anchor="middle" x="56.71" y="-427.04" font-family="Times,serif" font-size="14.00">Recall</text>
<text text-anchor="middle" x="56.71" y="-412.04" font-family="Times,serif" font-size="14.00">(collect)</text>
</g>
<!-- recall_retrieve -->
<g id="node3" class="node">
<title>recall_retrieve</title>
<polygon fill="lightgreen" stroke="black" points="109.62,-325.19 82.16,-356.24 27.25,-356.24 -0.21,-325.19 27.25,-294.13 82.16,-294.13 109.62,-325.19"/>
<text text-anchor="middle" x="54.71" y="-328.99" font-family="Times,serif" font-size="14.00">Recall</text>
<text text-anchor="middle" x="54.71" y="-313.99" font-family="Times,serif" font-size="14.00">(retrieve)</text>
</g>
<!-- recall_collect&#45;&gt;recall_retrieve -->
<g id="edge3" class="edge">
<title>recall_collect&#45;&gt;recall_retrieve</title>
<path fill="none" stroke="black" d="M56.08,-392.11C55.91,-384.06 55.73,-375.21 55.55,-366.7"/>
<polygon fill="black" stroke="black" points="59.04,-366.46 55.34,-356.54 52.05,-366.61 59.04,-366.46"/>
</g>
<!-- neoreader_retrieve -->
<g id="node4" class="node">
<title>neoreader_retrieve</title>
<polygon fill="orange" stroke="black" points="253.45,-325.19 222.08,-356.24 159.33,-356.24 127.96,-325.19 159.33,-294.13 222.08,-294.13 253.45,-325.19"/>
<text text-anchor="middle" x="190.71" y="-328.99" font-family="Times,serif" font-size="14.00">NeoReader</text>
<text text-anchor="middle" x="190.71" y="-313.99" font-family="Times,serif" font-size="14.00">(retrieve)</text>
</g>
<!-- recall_collect&#45;&gt;neoreader_retrieve -->
<g id="edge5" class="edge">
<title>recall_collect&#45;&gt;neoreader_retrieve</title>
<path fill="none" stroke="black" d="M88.46,-399.48C105.72,-387.11 127.34,-371.61 146.25,-358.05"/>
<polygon fill="black" stroke="black" points="148.35,-360.85 154.44,-352.18 144.28,-355.16 148.35,-360.85"/>
</g>
<!-- neoreader_collect -->
<g id="node2" class="node">
<title>neoreader_collect</title>
<polygon fill="lightblue" stroke="black" points="250.45,-423.24 219.08,-454.3 156.33,-454.3 124.96,-423.24 156.33,-392.19 219.08,-392.19 250.45,-423.24"/>
<text text-anchor="middle" x="187.71" y="-427.04" font-family="Times,serif" font-size="14.00">NeoReader</text>
<text text-anchor="middle" x="187.71" y="-412.04" font-family="Times,serif" font-size="14.00">(collect)</text>
</g>
<!-- neoreader_collect&#45;&gt;recall_retrieve -->
<g id="edge4" class="edge">
<title>neoreader_collect&#45;&gt;recall_retrieve</title>
<path fill="none" stroke="black" d="M151.71,-396.25C134.66,-383.93 114.18,-369.14 96.45,-356.33"/>
<polygon fill="black" stroke="black" points="98.14,-353.24 87.99,-350.22 94.04,-358.92 98.14,-353.24"/>
</g>
<!-- neoreader_collect&#45;&gt;neoreader_retrieve -->
<g id="edge6" class="edge">
<title>neoreader_collect&#45;&gt;neoreader_retrieve</title>
<path fill="none" stroke="black" d="M188.65,-392.11C188.9,-384.06 189.17,-375.21 189.44,-366.7"/>
<polygon fill="black" stroke="black" points="192.94,-366.64 189.76,-356.54 185.95,-366.43 192.94,-366.64"/>
</g>
<!-- neoreader_consume -->
<g id="node5" class="node">
<title>neoreader_consume</title>
<polygon fill="lightgreen" stroke="black" points="185.45,-227.13 154.08,-258.19 91.33,-258.19 59.96,-227.13 91.33,-196.08 154.08,-196.08 185.45,-227.13"/>
<text text-anchor="middle" x="122.71" y="-230.93" font-family="Times,serif" font-size="14.00">NeoReader</text>
<text text-anchor="middle" x="122.71" y="-215.93" font-family="Times,serif" font-size="14.00">(consume)</text>
</g>
<!-- recall_retrieve&#45;&gt;neoreader_consume -->
<g id="edge7" class="edge">
<title>recall_retrieve&#45;&gt;neoreader_consume</title>
<path fill="none" stroke="black" d="M76.03,-294.06C82.18,-285.38 88.96,-275.8 95.42,-266.68"/>
<polygon fill="black" stroke="black" points="98.3,-268.67 101.22,-258.49 92.58,-264.63 98.3,-268.67"/>
</g>
<!-- neoreader_retrieve&#45;&gt;neoreader_consume -->
<g id="edge8" class="edge">
<title>neoreader_retrieve&#45;&gt;neoreader_consume</title>
<path fill="none" stroke="black" d="M169.38,-294.06C163.23,-285.38 156.45,-275.8 149.99,-266.68"/>
<polygon fill="black" stroke="black" points="152.83,-264.63 144.19,-258.49 147.11,-268.67 152.83,-264.63"/>
</g>
<!-- readwise_extract -->
<g id="node6" class="node">
<title>readwise_extract</title>
<polygon fill="lightgreen" stroke="black" points="178.88,-129.08 150.79,-160.13 94.62,-160.13 66.53,-129.08 94.62,-98.03 150.79,-98.03 178.88,-129.08"/>
<text text-anchor="middle" x="122.71" y="-132.88" font-family="Times,serif" font-size="14.00">Readwise</text>
<text text-anchor="middle" x="122.71" y="-117.88" font-family="Times,serif" font-size="14.00">(extract)</text>
</g>
<!-- neoreader_consume&#45;&gt;readwise_extract -->
<g id="edge9" class="edge">
<title>neoreader_consume&#45;&gt;readwise_extract</title>
<path fill="none" stroke="black" d="M122.71,-196.01C122.71,-187.95 122.71,-179.11 122.71,-170.59"/>
<polygon fill="black" stroke="black" points="126.21,-170.43 122.71,-160.43 119.21,-170.43 126.21,-170.43"/>
</g>
<!-- obsidian_refine -->
<g id="node7" class="node">
<title>obsidian_refine</title>
<polygon fill="lightgreen" stroke="black" points="116.85,-31.03 90.28,-62.08 37.13,-62.08 10.56,-31.03 37.13,0.03 90.28,0.03 116.85,-31.03"/>
<text text-anchor="middle" x="63.71" y="-34.83" font-family="Times,serif" font-size="14.00">Obsidian</text>
<text text-anchor="middle" x="63.71" y="-19.83" font-family="Times,serif" font-size="14.00">(refine)</text>
</g>
<!-- readwise_extract&#45;&gt;obsidian_refine -->
<g id="edge10" class="edge">
<title>readwise_extract&#45;&gt;obsidian_refine</title>
<path fill="none" stroke="black" d="M104.2,-97.95C98.98,-89.45 93.22,-80.08 87.73,-71.13"/>
<polygon fill="black" stroke="black" points="90.56,-69.07 82.35,-62.38 84.6,-72.73 90.56,-69.07"/>
</g>
<!-- recall_refine -->
<g id="node8" class="node">
<title>recall_refine</title>
<polygon fill="lightgreen" stroke="black" points="228.29,-31.03 205,-62.08 158.41,-62.08 135.12,-31.03 158.41,0.03 205,0.03 228.29,-31.03"/>
<text text-anchor="middle" x="181.71" y="-34.83" font-family="Times,serif" font-size="14.00">Recall</text>
<text text-anchor="middle" x="181.71" y="-19.83" font-family="Times,serif" font-size="14.00">(refine)</text>
</g>
<!-- readwise_extract&#45;&gt;recall_refine -->
<g id="edge11" class="edge">
<title>readwise_extract&#45;&gt;recall_refine</title>
<path fill="none" stroke="black" d="M141.21,-97.95C146.43,-89.45 152.19,-80.08 157.68,-71.13"/>
<polygon fill="black" stroke="black" points="160.81,-72.73 163.06,-62.38 154.85,-69.07 160.81,-72.73"/>
</g>
<!-- source_research_paper -->
<g id="node9" class="node">
<title>source_research_paper</title>
<polygon fill="none" stroke="black" points="172.21,-526.27 71.21,-526.27 71.21,-490.27 172.21,-490.27 172.21,-526.27"/>
<text text-anchor="middle" x="121.71" y="-504.57" font-family="Times,serif" font-size="14.00">Research Paper</text>
</g>
<!-- source_research_paper&#45;&gt;recall_collect -->
<g id="edge1" class="edge">
<title>source_research_paper&#45;&gt;recall_collect</title>
<path fill="none" stroke="black" d="M108.24,-490.07C101.96,-482.05 94.23,-472.17 86.67,-462.52"/>
<polygon fill="black" stroke="black" points="89.33,-460.23 80.41,-454.52 83.82,-464.55 89.33,-460.23"/>
</g>
<!-- source_research_paper&#45;&gt;neoreader_collect -->
<g id="edge2" class="edge">
<title>source_research_paper&#45;&gt;neoreader_collect</title>
<path fill="none" stroke="black" d="M135.38,-490.07C141.75,-482.05 149.61,-472.17 157.28,-462.52"/>
<polygon fill="black" stroke="black" points="160.16,-464.52 163.64,-454.52 154.68,-460.17 160.16,-464.52"/>
</g>
</g>
</svg>
