<?xml version="1.0" encoding="UTF-8" standalone="no"?>
<!DOCTYPE svg PUBLIC "-//W3C//DTD SVG 1.1//EN"
 "http://www.w3.org/Graphics/SVG/1.1/DTD/svg11.dtd">
<!-- Generated by graphviz version 2.43.0 (0)
 -->
<!-- Title: %3 Pages: 1 -->
<svg width="991pt" height="534pt"
 viewBox="0.00 0.00 990.92 534.27" xmlns="http://www.w3.org/2000/svg" xmlns:xlink="http://www.w3.org/1999/xlink">
<g id="graph0" class="graph" transform="scale(1 1) rotate(0) translate(4 530.27)">
<title>%3</title>
<polygon fill="white" stroke="transparent" points="-4,4 -4,-530.27 986.92,-530.27 986.92,4 -4,4"/>
<!-- reader_collect -->
<g id="node1" class="node">
<title>reader_collect</title>
<polygon fill="lightgreen" stroke="black" points="306.17,-423.24 280.79,-454.3 230.05,-454.3 204.67,-423.24 230.05,-392.19 280.79,-392.19 306.17,-423.24"/>
<text text-anchor="middle" x="255.42" y="-427.04" font-family="Times,serif" font-size="14.00">Reader</text>
<text text-anchor="middle" x="255.42" y="-412.04" font-family="Times,serif" font-size="14.00">(collect)</text>
</g>
<!-- recall_retrieve -->
<g id="node8" class="node">
<title>recall_retrieve</title>
<polygon fill="lightgreen" stroke="black" points="424.33,-325.19 396.88,-356.24 341.97,-356.24 314.51,-325.19 341.97,-294.13 396.88,-294.13 424.33,-325.19"/>
<text text-anchor="middle" x="369.42" y="-328.99" font-family="Times,serif" font-size="14.00">Recall</text>
<text text-anchor="middle" x="369.42" y="-313.99" font-family="Times,serif" font-size="14.00">(retrieve)</text>
</g>
<!-- reader_collect&#45;&gt;recall_retrieve -->
<g id="edge7" class="edge">
<title>reader_collect&#45;&gt;recall_retrieve</title>
<path fill="none" stroke="black" d="M285.08,-397.26C298.88,-385.62 315.49,-371.63 330.3,-359.15"/>
<polygon fill="black" stroke="black" points="332.93,-361.51 338.32,-352.39 328.42,-356.16 332.93,-361.51"/>
</g>
<!-- recall_collect -->
<g id="node2" class="node">
<title>recall_collect</title>
<polygon fill="lightgreen" stroke="black" points="425.17,-423.24 399.79,-454.3 349.05,-454.3 323.67,-423.24 349.05,-392.19 399.79,-392.19 425.17,-423.24"/>
<text text-anchor="middle" x="374.42" y="-427.04" font-family="Times,serif" font-size="14.00">Recall</text>
<text text-anchor="middle" x="374.42" y="-412.04" font-family="Times,serif" font-size="14.00">(collect)</text>
</g>
<!-- recall_collect&#45;&gt;recall_retrieve -->
<g id="edge8" class="edge">
<title>recall_collect&#45;&gt;recall_retrieve</title>
<path fill="none" stroke="black" d="M372.85,-392.11C372.43,-384.06 371.97,-375.21 371.53,-366.7"/>
<polygon fill="black" stroke="black" points="375.02,-366.34 371,-356.54 368.03,-366.71 375.02,-366.34"/>
</g>
<!-- neoreader_retrieve -->
<g id="node12" class="node">
<title>neoreader_retrieve</title>
<polygon fill="orange" stroke="black" points="568.16,-325.19 536.79,-356.24 474.05,-356.24 442.68,-325.19 474.05,-294.13 536.79,-294.13 568.16,-325.19"/>
<text text-anchor="middle" x="505.42" y="-328.99" font-family="Times,serif" font-size="14.00">NeoReader</text>
<text text-anchor="middle" x="505.42" y="-313.99" font-family="Times,serif" font-size="14.00">(retrieve)</text>
</g>
<!-- recall_collect&#45;&gt;neoreader_retrieve -->
<g id="edge28" class="edge">
<title>recall_collect&#45;&gt;neoreader_retrieve</title>
<path fill="none" stroke="black" d="M405.8,-399.23C422.47,-387.01 443.24,-371.78 461.49,-358.4"/>
<polygon fill="black" stroke="black" points="463.68,-361.14 469.67,-352.4 459.54,-355.49 463.68,-361.14"/>
</g>
<!-- librarything_collect -->
<g id="node3" class="node">
<title>librarything_collect</title>
<polygon fill="lightblue" stroke="black" points="732.26,-423.24 695.84,-454.3 623,-454.3 586.58,-423.24 623,-392.19 695.84,-392.19 732.26,-423.24"/>
<text text-anchor="middle" x="659.42" y="-427.04" font-family="Times,serif" font-size="14.00">LibraryThing</text>
<text text-anchor="middle" x="659.42" y="-412.04" font-family="Times,serif" font-size="14.00">(collect)</text>
</g>
<!-- librarything_retrieve -->
<g id="node9" class="node">
<title>librarything_retrieve</title>
<polygon fill="orange" stroke="black" points="732.26,-325.19 695.84,-356.24 623,-356.24 586.58,-325.19 623,-294.13 695.84,-294.13 732.26,-325.19"/>
<text text-anchor="middle" x="659.42" y="-328.99" font-family="Times,serif" font-size="14.00">LibraryThing</text>
<text text-anchor="middle" x="659.42" y="-313.99" font-family="Times,serif" font-size="14.00">(retrieve)</text>
</g>
<!-- librarything_collect&#45;&gt;librarything_retrieve -->
<g id="edge14" class="edge">
<title>librarything_collect&#45;&gt;librarything_retrieve</title>
<path fill="none" stroke="black" d="M659.42,-392.11C659.42,-384.06 659.42,-375.21 659.42,-366.7"/>
<polygon fill="black" stroke="black" points="662.92,-366.54 659.42,-356.54 655.92,-366.54 662.92,-366.54"/>
</g>
<!-- youtube_collect -->
<g id="node4" class="node">
<title>youtube_collect</title>
<polygon fill="lightblue" stroke="black" points="115.33,-423.24 87.88,-454.3 32.97,-454.3 5.51,-423.24 32.97,-392.19 87.88,-392.19 115.33,-423.24"/>
<text text-anchor="middle" x="60.42" y="-427.04" font-family="Times,serif" font-size="14.00">YouTube</text>
<text text-anchor="middle" x="60.42" y="-412.04" font-family="Times,serif" font-size="14.00">(collect)</text>
</g>
<!-- youtube_retrieve -->
<g id="node10" class="node">
<title>youtube_retrieve</title>
<polygon fill="orange" stroke="black" points="115.33,-325.19 87.88,-356.24 32.97,-356.24 5.51,-325.19 32.97,-294.13 87.88,-294.13 115.33,-325.19"/>
<text text-anchor="middle" x="60.42" y="-328.99" font-family="Times,serif" font-size="14.00">YouTube</text>
<text text-anchor="middle" x="60.42" y="-313.99" font-family="Times,serif" font-size="14.00">(retrieve)</text>
</g>
<!-- youtube_collect&#45;&gt;youtube_retrieve -->
<g id="edge18" class="edge">
<title>youtube_collect&#45;&gt;youtube_retrieve</title>
<path fill="none" stroke="black" d="M60.42,-392.11C60.42,-384.06 60.42,-375.21 60.42,-366.7"/>
<polygon fill="black" stroke="black" points="63.92,-366.54 60.42,-356.54 56.92,-366.54 63.92,-366.54"/>
</g>
<!-- snipd_collect -->
<g id="node5" class="node">
<title>snipd_collect</title>
<polygon fill="lightblue" stroke="black" points="853.17,-423.24 827.79,-454.3 777.05,-454.3 751.67,-423.24 777.05,-392.19 827.79,-392.19 853.17,-423.24"/>
<text text-anchor="middle" x="802.42" y="-427.04" font-family="Times,serif" font-size="14.00">Snipd</text>
<text text-anchor="middle" x="802.42" y="-412.04" font-family="Times,serif" font-size="14.00">(collect)</text>
</g>
<!-- snipd_retrieve -->
<g id="node11" class="node">
<title>snipd_retrieve</title>
<polygon fill="orange" stroke="black" points="859.33,-325.19 831.88,-356.24 776.97,-356.24 749.51,-325.19 776.97,-294.13 831.88,-294.13 859.33,-325.19"/>
<text text-anchor="middle" x="804.42" y="-328.99" font-family="Times,serif" font-size="14.00">Snipd</text>
<text text-anchor="middle" x="804.42" y="-313.99" font-family="Times,serif" font-size="14.00">(retrieve)</text>
</g>
<!-- snipd_collect&#45;&gt;snipd_retrieve -->
<g id="edge22" class="edge">
<title>snipd_collect&#45;&gt;snipd_retrieve</title>
<path fill="none" stroke="black" d="M803.05,-392.11C803.22,-384.06 803.4,-375.21 803.58,-366.7"/>
<polygon fill="black" stroke="black" points="807.08,-366.61 803.79,-356.54 800.08,-366.46 807.08,-366.61"/>
</g>
<!-- neoreader_collect -->
<g id="node6" class="node">
<title>neoreader_collect</title>
<polygon fill="lightblue" stroke="black" points="568.16,-423.24 536.79,-454.3 474.05,-454.3 442.68,-423.24 474.05,-392.19 536.79,-392.19 568.16,-423.24"/>
<text text-anchor="middle" x="505.42" y="-427.04" font-family="Times,serif" font-size="14.00">NeoReader</text>
<text text-anchor="middle" x="505.42" y="-412.04" font-family="Times,serif" font-size="14.00">(collect)</text>
</g>
<!-- neoreader_collect&#45;&gt;recall_retrieve -->
<g id="edge27" class="edge">
<title>neoreader_collect&#45;&gt;recall_retrieve</title>
<path fill="none" stroke="black" d="M469.33,-396.75C451.45,-384.13 429.77,-368.81 411.17,-355.68"/>
<polygon fill="black" stroke="black" points="413.06,-352.73 402.87,-349.82 409.02,-358.44 413.06,-352.73"/>
</g>
<!-- neoreader_collect&#45;&gt;neoreader_retrieve -->
<g id="edge29" class="edge">
<title>neoreader_collect&#45;&gt;neoreader_retrieve</title>
<path fill="none" stroke="black" d="M505.42,-392.11C505.42,-384.06 505.42,-375.21 505.42,-366.7"/>
<polygon fill="black" stroke="black" points="508.92,-366.54 505.42,-356.54 501.92,-366.54 508.92,-366.54"/>
</g>
<!-- obsidian_retrieve -->
<g id="node7" class="node">
<title>obsidian_retrieve</title>
<polygon fill="lightblue" stroke="black" points="248.33,-325.19 220.88,-356.24 165.97,-356.24 138.51,-325.19 165.97,-294.13 220.88,-294.13 248.33,-325.19"/>
<text text-anchor="middle" x="193.42" y="-328.99" font-family="Times,serif" font-size="14.00">Obsidian</text>
<text text-anchor="middle" x="193.42" y="-313.99" font-family="Times,serif" font-size="14.00">(retrieve)</text>
</g>
<!-- obsidian_consume -->
<g id="node13" class="node">
<title>obsidian_consume</title>
<polygon fill="lightblue" stroke="black" points="259.76,-227.13 229.59,-258.19 169.25,-258.19 139.08,-227.13 169.25,-196.08 229.59,-196.08 259.76,-227.13"/>
<text text-anchor="middle" x="199.42" y="-230.93" font-family="Times,serif" font-size="14.00">Obsidian</text>
<text text-anchor="middle" x="199.42" y="-215.93" font-family="Times,serif" font-size="14.00">(consume)</text>
</g>
<!-- obsidian_retrieve&#45;&gt;obsidian_consume -->
<g id="edge2" class="edge">
<title>obsidian_retrieve&#45;&gt;obsidian_consume</title>
<path fill="none" stroke="black" d="M195.3,-294.06C195.81,-286 196.36,-277.16 196.89,-268.64"/>
<polygon fill="black" stroke="black" points="200.39,-268.68 197.52,-258.49 193.41,-268.25 200.39,-268.68"/>
</g>
<!-- reader_consume -->
<g id="node14" class="node">
<title>reader_consume</title>
<polygon fill="lightgreen" stroke="black" points="429.76,-227.13 399.59,-258.19 339.25,-258.19 309.08,-227.13 339.25,-196.08 399.59,-196.08 429.76,-227.13"/>
<text text-anchor="middle" x="369.42" y="-230.93" font-family="Times,serif" font-size="14.00">Reader</text>
<text text-anchor="middle" x="369.42" y="-215.93" font-family="Times,serif" font-size="14.00">(consume)</text>
</g>
<!-- recall_retrieve&#45;&gt;reader_consume -->
<g id="edge9" class="edge">
<title>recall_retrieve&#45;&gt;reader_consume</title>
<path fill="none" stroke="black" d="M369.42,-294.06C369.42,-286 369.42,-277.16 369.42,-268.64"/>
<polygon fill="black" stroke="black" points="372.92,-268.49 369.42,-258.49 365.92,-268.49 372.92,-268.49"/>
</g>
<!-- neoreader_consume -->
<g id="node15" class="node">
<title>neoreader_consume</title>
<polygon fill="lightgreen" stroke="black" points="647.16,-227.13 615.79,-258.19 553.05,-258.19 521.68,-227.13 553.05,-196.08 615.79,-196.08 647.16,-227.13"/>
<text text-anchor="middle" x="584.42" y="-230.93" font-family="Times,serif" font-size="14.00">NeoReader</text>
<text text-anchor="middle" x="584.42" y="-215.93" font-family="Times,serif" font-size="14.00">(consume)</text>
</g>
<!-- recall_retrieve&#45;&gt;neoreader_consume -->
<g id="edge30" class="edge">
<title>recall_retrieve&#45;&gt;neoreader_consume</title>
<path fill="none" stroke="black" d="M407.59,-306.08C416.07,-302.11 425.04,-297.96 433.42,-294.16 465.97,-279.41 502.69,-263.34 531.78,-250.75"/>
<polygon fill="black" stroke="black" points="533.54,-253.8 541.33,-246.62 530.76,-247.37 533.54,-253.8"/>
</g>
<!-- librarything_retrieve&#45;&gt;neoreader_consume -->
<g id="edge15" class="edge">
<title>librarything_retrieve&#45;&gt;neoreader_consume</title>
<path fill="none" stroke="black" d="M635.9,-294.06C629.05,-285.29 621.48,-275.6 614.3,-266.4"/>
<polygon fill="black" stroke="black" points="617.03,-264.21 608.12,-258.49 611.52,-268.52 617.03,-264.21"/>
</g>
<!-- youtube_consume -->
<g id="node16" class="node">
<title>youtube_consume</title>
<polygon fill="lightblue" stroke="black" points="120.76,-227.13 90.59,-258.19 30.25,-258.19 0.08,-227.13 30.25,-196.08 90.59,-196.08 120.76,-227.13"/>
<text text-anchor="middle" x="60.42" y="-230.93" font-family="Times,serif" font-size="14.00">YouTube</text>
<text text-anchor="middle" x="60.42" y="-215.93" font-family="Times,serif" font-size="14.00">(consume)</text>
</g>
<!-- youtube_retrieve&#45;&gt;youtube_consume -->
<g id="edge19" class="edge">
<title>youtube_retrieve&#45;&gt;youtube_consume</title>
<path fill="none" stroke="black" d="M60.42,-294.06C60.42,-286 60.42,-277.16 60.42,-268.64"/>
<polygon fill="black" stroke="black" points="63.92,-268.49 60.42,-258.49 56.92,-268.49 63.92,-268.49"/>
</g>
<!-- snipd_consume -->
<g id="node17" class="node">
<title>snipd_consume</title>
<polygon fill="lightgreen" stroke="black" points="842.76,-227.13 812.59,-258.19 752.25,-258.19 722.08,-227.13 752.25,-196.08 812.59,-196.08 842.76,-227.13"/>
<text text-anchor="middle" x="782.42" y="-230.93" font-family="Times,serif" font-size="14.00">Snipd</text>
<text text-anchor="middle" x="782.42" y="-215.93" font-family="Times,serif" font-size="14.00">(consume)</text>
</g>
<!-- snipd_retrieve&#45;&gt;snipd_consume -->
<g id="edge23" class="edge">
<title>snipd_retrieve&#45;&gt;snipd_consume</title>
<path fill="none" stroke="black" d="M797.52,-294.06C795.65,-285.91 793.6,-276.97 791.63,-268.36"/>
<polygon fill="black" stroke="black" points="795.02,-267.45 789.37,-258.49 788.19,-269.02 795.02,-267.45"/>
</g>
<!-- neoreader_retrieve&#45;&gt;neoreader_consume -->
<g id="edge31" class="edge">
<title>neoreader_retrieve&#45;&gt;neoreader_consume</title>
<path fill="none" stroke="black" d="M530.2,-294.06C537.41,-285.29 545.38,-275.6 552.95,-266.4"/>
<polygon fill="black" stroke="black" points="555.81,-268.43 559.46,-258.49 550.4,-263.99 555.81,-268.43"/>
</g>
<!-- obsidian_extract -->
<g id="node18" class="node">
<title>obsidian_extract</title>
<polygon fill="lightgreen" stroke="black" points="252.57,-129.08 225.99,-160.13 172.85,-160.13 146.28,-129.08 172.85,-98.03 225.99,-98.03 252.57,-129.08"/>
<text text-anchor="middle" x="199.42" y="-132.88" font-family="Times,serif" font-size="14.00">Obsidian</text>
<text text-anchor="middle" x="199.42" y="-117.88" font-family="Times,serif" font-size="14.00">(extract)</text>
</g>
<!-- obsidian_consume&#45;&gt;obsidian_extract -->
<g id="edge3" class="edge">
<title>obsidian_consume&#45;&gt;obsidian_extract</title>
<path fill="none" stroke="black" d="M199.42,-196.01C199.42,-187.95 199.42,-179.11 199.42,-170.59"/>
<polygon fill="black" stroke="black" points="202.92,-170.43 199.42,-160.43 195.92,-170.43 202.92,-170.43"/>
</g>
<!-- readwise_extract -->
<g id="node19" class="node">
<title>readwise_extract</title>
<polygon fill="lightgreen" stroke="black" points="739.6,-129.08 711.51,-160.13 655.33,-160.13 627.24,-129.08 655.33,-98.03 711.51,-98.03 739.6,-129.08"/>
<text text-anchor="middle" x="683.42" y="-132.88" font-family="Times,serif" font-size="14.00">Readwise</text>
<text text-anchor="middle" x="683.42" y="-117.88" font-family="Times,serif" font-size="14.00">(extract)</text>
</g>
<!-- neoreader_consume&#45;&gt;readwise_extract -->
<g id="edge16" class="edge">
<title>neoreader_consume&#45;&gt;readwise_extract</title>
<path fill="none" stroke="black" d="M615.47,-196.01C625.33,-186.44 636.32,-175.78 646.55,-165.86"/>
<polygon fill="black" stroke="black" points="649.09,-168.27 653.83,-158.79 644.22,-163.24 649.09,-168.27"/>
</g>
<!-- youtube_consume&#45;&gt;obsidian_extract -->
<g id="edge20" class="edge">
<title>youtube_consume&#45;&gt;obsidian_extract</title>
<path fill="none" stroke="black" d="M96.22,-201.4C115,-188.42 138.11,-172.45 157.69,-158.92"/>
<polygon fill="black" stroke="black" points="159.9,-161.65 166.13,-153.08 155.92,-155.89 159.9,-161.65"/>
</g>
<!-- snipd_consume&#45;&gt;readwise_extract -->
<g id="edge24" class="edge">
<title>snipd_consume&#45;&gt;readwise_extract</title>
<path fill="none" stroke="black" d="M751.64,-196.27C741.77,-186.7 730.74,-176 720.48,-166.04"/>
<polygon fill="black" stroke="black" points="722.78,-163.39 713.17,-158.94 717.91,-168.42 722.78,-163.39"/>
</g>
<!-- obsidian_refine -->
<g id="node20" class="node">
<title>obsidian_refine</title>
<polygon fill="lightgreen" stroke="black" points="522.57,-31.03 495.99,-62.08 442.85,-62.08 416.28,-31.03 442.85,0.03 495.99,0.03 522.57,-31.03"/>
<text text-anchor="middle" x="469.42" y="-34.83" font-family="Times,serif" font-size="14.00">Obsidian</text>
<text text-anchor="middle" x="469.42" y="-19.83" font-family="Times,serif" font-size="14.00">(refine)</text>
</g>
<!-- obsidian_extract&#45;&gt;obsidian_refine -->
<g id="edge4" class="edge">
<title>obsidian_extract&#45;&gt;obsidian_refine</title>
<path fill="none" stroke="black" d="M239.55,-113.8C287.44,-96.77 367.53,-68.27 419.41,-49.82"/>
<polygon fill="black" stroke="black" points="420.82,-53.03 429.07,-46.38 418.48,-46.44 420.82,-53.03"/>
</g>
<!-- readwise_extract&#45;&gt;obsidian_refine -->
<g id="edge12" class="edge">
<title>readwise_extract&#45;&gt;obsidian_refine</title>
<path fill="none" stroke="black" d="M643.92,-110.35C607.96,-94.21 554.81,-70.35 516.62,-53.21"/>
<polygon fill="black" stroke="black" points="517.81,-49.91 507.25,-49.01 514.94,-56.3 517.81,-49.91"/>
</g>
<!-- recall_refine -->
<g id="node21" class="node">
<title>recall_refine</title>
<polygon fill="lightgreen" stroke="black" points="730,-31.03 706.71,-62.08 660.13,-62.08 636.84,-31.03 660.13,0.03 706.71,0.03 730,-31.03"/>
<text text-anchor="middle" x="683.42" y="-34.83" font-family="Times,serif" font-size="14.00">Recall</text>
<text text-anchor="middle" x="683.42" y="-19.83" font-family="Times,serif" font-size="14.00">(refine)</text>
</g>
<!-- readwise_extract&#45;&gt;recall_refine -->
<g id="edge11" class="edge">
<title>readwise_extract&#45;&gt;recall_refine</title>
<path fill="none" stroke="black" d="M683.42,-97.95C683.42,-89.89 683.42,-81.05 683.42,-72.53"/>
<polygon fill="black" stroke="black" points="686.92,-72.38 683.42,-62.38 679.92,-72.38 686.92,-72.38"/>
</g>
<!-- source_note -->
<g id="node22" class="node">
<title>source_note</title>
<polygon fill="none" stroke="black" points="203.42,-526.27 149.42,-526.27 149.42,-490.27 203.42,-490.27 203.42,-526.27"/>
<text text-anchor="middle" x="176.42" y="-504.57" font-family="Times,serif" font-size="14.00">Note</text>
</g>
<!-- source_note&#45;&gt;obsidian_retrieve -->
<g id="edge1" class="edge">
<title>source_note&#45;&gt;obsidian_retrieve</title>
<path fill="none" stroke="black" d="M178.02,-490.23C180.65,-462.23 185.96,-405.7 189.6,-366.9"/>
<polygon fill="black" stroke="black" points="193.13,-366.75 190.58,-356.47 186.16,-366.1 193.13,-366.75"/>
</g>
<!-- source_web_article -->
<g id="node23" class="node">
<title>source_web_article</title>
<polygon fill="none" stroke="black" points="310.42,-526.27 228.42,-526.27 228.42,-490.27 310.42,-490.27 310.42,-526.27"/>
<text text-anchor="middle" x="269.42" y="-504.57" font-family="Times,serif" font-size="14.00">Web Article</text>
</g>
<!-- source_web_article&#45;&gt;reader_collect -->
<g id="edge5" class="edge">
<title>source_web_article&#45;&gt;reader_collect</title>
<path fill="none" stroke="black" d="M266.52,-490.07C265.26,-482.61 263.73,-473.54 262.22,-464.55"/>
<polygon fill="black" stroke="black" points="265.64,-463.8 260.53,-454.52 258.74,-464.96 265.64,-463.8"/>
</g>
<!-- source_web_article&#45;&gt;recall_collect -->
<g id="edge6" class="edge">
<title>source_web_article&#45;&gt;recall_collect</title>
<path fill="none" stroke="black" d="M290.92,-490.27C303.78,-480.1 320.5,-466.88 335.6,-454.94"/>
<polygon fill="black" stroke="black" points="338.12,-457.41 343.79,-448.46 333.78,-451.92 338.12,-457.41"/>
</g>
<!-- source_annotations&amp;highlights -->
<g id="node24" class="node">
<title>source_annotations&amp;highlights</title>
<polygon fill="none" stroke="black" points="982.92,-526.27 831.92,-526.27 831.92,-490.27 982.92,-490.27 982.92,-526.27"/>
<text text-anchor="middle" x="907.42" y="-504.57" font-family="Times,serif" font-size="14.00">Annotations&amp;Highlights</text>
</g>
<!-- source_annotations&amp;highlights&#45;&gt;readwise_extract -->
<g id="edge10" class="edge">
<title>source_annotations&amp;highlights&#45;&gt;readwise_extract</title>
<path fill="none" stroke="black" d="M909.65,-490.1C915.29,-438.97 924.89,-285.64 851.42,-196.11 824.71,-163.56 779.75,-146.99 743.07,-138.59"/>
<polygon fill="black" stroke="black" points="743.47,-135.1 732.96,-136.43 742.01,-141.94 743.47,-135.1"/>
</g>
<!-- source_book -->
<g id="node25" class="node">
<title>source_book</title>
<polygon fill="none" stroke="black" points="686.42,-526.27 632.42,-526.27 632.42,-490.27 686.42,-490.27 686.42,-526.27"/>
<text text-anchor="middle" x="659.42" y="-504.57" font-family="Times,serif" font-size="14.00">Book</text>
</g>
<!-- source_book&#45;&gt;librarything_collect -->
<g id="edge13" class="edge">
<title>source_book&#45;&gt;librarything_collect</title>
<path fill="none" stroke="black" d="M659.42,-490.07C659.42,-482.61 659.42,-473.54 659.42,-464.55"/>
<polygon fill="black" stroke="black" points="662.92,-464.52 659.42,-454.52 655.92,-464.52 662.92,-464.52"/>
</g>
<!-- source_youtube_video -->
<g id="node26" class="node">
<title>source_youtube_video</title>
<polygon fill="none" stroke="black" points="109.42,-526.27 11.42,-526.27 11.42,-490.27 109.42,-490.27 109.42,-526.27"/>
<text text-anchor="middle" x="60.42" y="-504.57" font-family="Times,serif" font-size="14.00">Youtube Video</text>
</g>
<!-- source_youtube_video&#45;&gt;youtube_collect -->
<g id="edge17" class="edge">
<title>source_youtube_video&#45;&gt;youtube_collect</title>
<path fill="none" stroke="black" d="M60.42,-490.07C60.42,-482.61 60.42,-473.54 60.42,-464.55"/>
<polygon fill="black" stroke="black" points="63.92,-464.52 60.42,-454.52 56.92,-464.52 63.92,-464.52"/>
</g>
<!-- source_podcast -->
<g id="node27" class="node">
<title>source_podcast</title>
<polygon fill="none" stroke="black" points="813.92,-526.27 754.92,-526.27 754.92,-490.27 813.92,-490.27 813.92,-526.27"/>
<text text-anchor="middle" x="784.42" y="-504.57" font-family="Times,serif" font-size="14.00">Podcast</text>
</g>
<!-- source_podcast&#45;&gt;snipd_collect -->
<g id="edge21" class="edge">
<title>source_podcast&#45;&gt;snipd_collect</title>
<path fill="none" stroke="black" d="M788.15,-490.07C789.77,-482.61 791.73,-473.54 793.68,-464.55"/>
<polygon fill="black" stroke="black" points="797.16,-465.03 795.86,-454.52 790.32,-463.55 797.16,-465.03"/>
</g>
<!-- source_research_paper -->
<g id="node28" class="node">
<title>source_research_paper</title>
<polygon fill="none" stroke="black" points="442.92,-526.27 341.92,-526.27 341.92,-490.27 442.92,-490.27 442.92,-526.27"/>
<text text-anchor="middle" x="392.42" y="-504.57" font-family="Times,serif" font-size="14.00">Research Paper</text>
</g>
<!-- source_research_paper&#45;&gt;recall_collect -->
<g id="edge25" class="edge">
<title>source_research_paper&#45;&gt;recall_collect</title>
<path fill="none" stroke="black" d="M388.69,-490.07C387.08,-482.61 385.11,-473.54 383.16,-464.55"/>
<polygon fill="black" stroke="black" points="386.52,-463.55 380.98,-454.52 379.68,-465.03 386.52,-463.55"/>
</g>
<!-- source_research_paper&#45;&gt;neoreader_collect -->
<g id="edge26" class="edge">
<title>source_research_paper&#45;&gt;neoreader_collect</title>
<path fill="none" stroke="black" d="M415.56,-490.27C428.87,-480.49 446.02,-467.89 461.77,-456.32"/>
<polygon fill="black" stroke="black" points="463.86,-459.12 469.84,-450.38 459.71,-453.48 463.86,-459.12"/>
</g>
<!-- source_document -->
<g id="node29" class="node">
<title>source_document</title>
<polygon fill="none" stroke="black" points="542.42,-526.27 468.42,-526.27 468.42,-490.27 542.42,-490.27 542.42,-526.27"/>
<text text-anchor="middle" x="505.42" y="-504.57" font-family="Times,serif" font-size="14.00">Document</text>
</g>
<!-- source_document&#45;&gt;neoreader_collect -->
<g id="edge32" class="edge">
<title>source_document&#45;&gt;neoreader_collect</title>
<path fill="none" stroke="black" d="M505.42,-490.07C505.42,-482.61 505.42,-473.54 505.42,-464.55"/>
<polygon fill="black" stroke="black" points="508.92,-464.52 505.42,-454.52 501.92,-464.52 508.92,-464.52"/>
</g>
</g>
</svg>
