<?xml version="1.0" encoding="UTF-8" standalone="no"?>
<!DOCTYPE svg PUBLIC "-//W3C//DTD SVG 1.1//EN"
 "http://www.w3.org/Graphics/SVG/1.1/DTD/svg11.dtd">
<!-- Generated by graphviz version 2.43.0 (0)
 -->
<!-- Title: %3 Pages: 1 -->
<svg width="982pt" height="534pt"
 viewBox="0.00 0.00 982.04 534.27" xmlns="http://www.w3.org/2000/svg" xmlns:xlink="http://www.w3.org/1999/xlink">
<g id="graph0" class="graph" transform="scale(1 1) rotate(0) translate(4 530.27)">
<title>%3</title>
<polygon fill="white" stroke="transparent" points="-4,4 -4,-530.27 978.04,-530.27 978.04,4 -4,4"/>
<!-- reader_collect -->
<g id="node1" class="node">
<title>reader_collect</title>
<polygon fill="lightgreen" stroke="black" points="101.37,-423.24 76,-454.3 25.25,-454.3 -0.12,-423.24 25.25,-392.19 76,-392.19 101.37,-423.24"/>
<text text-anchor="middle" x="50.62" y="-427.04" font-family="Times,serif" font-size="14.00">Reader</text>
<text text-anchor="middle" x="50.62" y="-412.04" font-family="Times,serif" font-size="14.00">(collect)</text>
</g>
<!-- recall_retrieve -->
<g id="node7" class="node">
<title>recall_retrieve</title>
<polygon fill="lightgreen" stroke="black" points="219.53,-325.19 192.08,-356.24 137.17,-356.24 109.71,-325.19 137.17,-294.13 192.08,-294.13 219.53,-325.19"/>
<text text-anchor="middle" x="164.62" y="-328.99" font-family="Times,serif" font-size="14.00">Recall</text>
<text text-anchor="middle" x="164.62" y="-313.99" font-family="Times,serif" font-size="14.00">(retrieve)</text>
</g>
<!-- reader_collect&#45;&gt;recall_retrieve -->
<g id="edge3" class="edge">
<title>reader_collect&#45;&gt;recall_retrieve</title>
<path fill="none" stroke="black" d="M80.28,-397.26C94.08,-385.62 110.69,-371.63 125.51,-359.15"/>
<polygon fill="black" stroke="black" points="128.13,-361.51 133.52,-352.39 123.62,-356.16 128.13,-361.51"/>
</g>
<!-- recall_collect -->
<g id="node2" class="node">
<title>recall_collect</title>
<polygon fill="lightgreen" stroke="black" points="220.37,-423.24 195,-454.3 144.25,-454.3 118.88,-423.24 144.25,-392.19 195,-392.19 220.37,-423.24"/>
<text text-anchor="middle" x="169.62" y="-427.04" font-family="Times,serif" font-size="14.00">Recall</text>
<text text-anchor="middle" x="169.62" y="-412.04" font-family="Times,serif" font-size="14.00">(collect)</text>
</g>
<!-- recall_collect&#45;&gt;recall_retrieve -->
<g id="edge4" class="edge">
<title>recall_collect&#45;&gt;recall_retrieve</title>
<path fill="none" stroke="black" d="M168.05,-392.11C167.64,-384.06 167.17,-375.21 166.73,-366.7"/>
<polygon fill="black" stroke="black" points="170.22,-366.34 166.2,-356.54 163.23,-366.71 170.22,-366.34"/>
</g>
<!-- neoreader_retrieve -->
<g id="node11" class="node">
<title>neoreader_retrieve</title>
<polygon fill="orange" stroke="black" points="363.36,-325.19 331.99,-356.24 269.25,-356.24 237.88,-325.19 269.25,-294.13 331.99,-294.13 363.36,-325.19"/>
<text text-anchor="middle" x="300.62" y="-328.99" font-family="Times,serif" font-size="14.00">NeoReader</text>
<text text-anchor="middle" x="300.62" y="-313.99" font-family="Times,serif" font-size="14.00">(retrieve)</text>
</g>
<!-- recall_collect&#45;&gt;neoreader_retrieve -->
<g id="edge24" class="edge">
<title>recall_collect&#45;&gt;neoreader_retrieve</title>
<path fill="none" stroke="black" d="M201,-399.23C217.67,-387.01 238.44,-371.78 256.69,-358.4"/>
<polygon fill="black" stroke="black" points="258.88,-361.14 264.87,-352.4 254.74,-355.49 258.88,-361.14"/>
</g>
<!-- librarything_collect -->
<g id="node3" class="node">
<title>librarything_collect</title>
<polygon fill="lightblue" stroke="black" points="527.46,-423.24 491.04,-454.3 418.2,-454.3 381.79,-423.24 418.2,-392.19 491.04,-392.19 527.46,-423.24"/>
<text text-anchor="middle" x="454.62" y="-427.04" font-family="Times,serif" font-size="14.00">LibraryThing</text>
<text text-anchor="middle" x="454.62" y="-412.04" font-family="Times,serif" font-size="14.00">(collect)</text>
</g>
<!-- librarything_retrieve -->
<g id="node9" class="node">
<title>librarything_retrieve</title>
<polygon fill="orange" stroke="black" points="527.46,-325.19 491.04,-356.24 418.2,-356.24 381.79,-325.19 418.2,-294.13 491.04,-294.13 527.46,-325.19"/>
<text text-anchor="middle" x="454.62" y="-328.99" font-family="Times,serif" font-size="14.00">LibraryThing</text>
<text text-anchor="middle" x="454.62" y="-313.99" font-family="Times,serif" font-size="14.00">(retrieve)</text>
</g>
<!-- librarything_collect&#45;&gt;librarything_retrieve -->
<g id="edge14" class="edge">
<title>librarything_collect&#45;&gt;librarything_retrieve</title>
<path fill="none" stroke="black" d="M454.62,-392.11C454.62,-384.06 454.62,-375.21 454.62,-366.7"/>
<polygon fill="black" stroke="black" points="458.12,-366.54 454.62,-356.54 451.12,-366.54 458.12,-366.54"/>
</g>
<!-- snipd_collect -->
<g id="node4" class="node">
<title>snipd_collect</title>
<polygon fill="lightblue" stroke="black" points="650.37,-423.24 625,-454.3 574.25,-454.3 548.88,-423.24 574.25,-392.19 625,-392.19 650.37,-423.24"/>
<text text-anchor="middle" x="599.62" y="-427.04" font-family="Times,serif" font-size="14.00">Snipd</text>
<text text-anchor="middle" x="599.62" y="-412.04" font-family="Times,serif" font-size="14.00">(collect)</text>
</g>
<!-- snipd_retrieve -->
<g id="node10" class="node">
<title>snipd_retrieve</title>
<polygon fill="orange" stroke="black" points="654.53,-325.19 627.08,-356.24 572.17,-356.24 544.71,-325.19 572.17,-294.13 627.08,-294.13 654.53,-325.19"/>
<text text-anchor="middle" x="599.62" y="-328.99" font-family="Times,serif" font-size="14.00">Snipd</text>
<text text-anchor="middle" x="599.62" y="-313.99" font-family="Times,serif" font-size="14.00">(retrieve)</text>
</g>
<!-- snipd_collect&#45;&gt;snipd_retrieve -->
<g id="edge18" class="edge">
<title>snipd_collect&#45;&gt;snipd_retrieve</title>
<path fill="none" stroke="black" d="M599.62,-392.11C599.62,-384.06 599.62,-375.21 599.62,-366.7"/>
<polygon fill="black" stroke="black" points="603.12,-366.54 599.62,-356.54 596.12,-366.54 603.12,-366.54"/>
</g>
<!-- neoreader_collect -->
<g id="node5" class="node">
<title>neoreader_collect</title>
<polygon fill="lightblue" stroke="black" points="363.36,-423.24 331.99,-454.3 269.25,-454.3 237.88,-423.24 269.25,-392.19 331.99,-392.19 363.36,-423.24"/>
<text text-anchor="middle" x="300.62" y="-427.04" font-family="Times,serif" font-size="14.00">NeoReader</text>
<text text-anchor="middle" x="300.62" y="-412.04" font-family="Times,serif" font-size="14.00">(collect)</text>
</g>
<!-- neoreader_collect&#45;&gt;recall_retrieve -->
<g id="edge23" class="edge">
<title>neoreader_collect&#45;&gt;recall_retrieve</title>
<path fill="none" stroke="black" d="M264.53,-396.75C246.66,-384.13 224.97,-368.81 206.38,-355.68"/>
<polygon fill="black" stroke="black" points="208.26,-352.73 198.08,-349.82 204.22,-358.44 208.26,-352.73"/>
</g>
<!-- neoreader_collect&#45;&gt;neoreader_retrieve -->
<g id="edge25" class="edge">
<title>neoreader_collect&#45;&gt;neoreader_retrieve</title>
<path fill="none" stroke="black" d="M300.62,-392.11C300.62,-384.06 300.62,-375.21 300.62,-366.7"/>
<polygon fill="black" stroke="black" points="304.12,-366.54 300.62,-356.54 297.12,-366.54 304.12,-366.54"/>
</g>
<!-- youtube_collect -->
<g id="node6" class="node">
<title>youtube_collect</title>
<polygon fill="lightblue" stroke="black" points="968.53,-423.24 941.08,-454.3 886.17,-454.3 858.71,-423.24 886.17,-392.19 941.08,-392.19 968.53,-423.24"/>
<text text-anchor="middle" x="913.62" y="-427.04" font-family="Times,serif" font-size="14.00">YouTube</text>
<text text-anchor="middle" x="913.62" y="-412.04" font-family="Times,serif" font-size="14.00">(collect)</text>
</g>
<!-- youtube_retrieve -->
<g id="node12" class="node">
<title>youtube_retrieve</title>
<polygon fill="orange" stroke="black" points="968.53,-325.19 941.08,-356.24 886.17,-356.24 858.71,-325.19 886.17,-294.13 941.08,-294.13 968.53,-325.19"/>
<text text-anchor="middle" x="913.62" y="-328.99" font-family="Times,serif" font-size="14.00">YouTube</text>
<text text-anchor="middle" x="913.62" y="-313.99" font-family="Times,serif" font-size="14.00">(retrieve)</text>
</g>
<!-- youtube_collect&#45;&gt;youtube_retrieve -->
<g id="edge30" class="edge">
<title>youtube_collect&#45;&gt;youtube_retrieve</title>
<path fill="none" stroke="black" d="M913.62,-392.11C913.62,-384.06 913.62,-375.21 913.62,-366.7"/>
<polygon fill="black" stroke="black" points="917.12,-366.54 913.62,-356.54 910.12,-366.54 917.12,-366.54"/>
</g>
<!-- reader_consume -->
<g id="node13" class="node">
<title>reader_consume</title>
<polygon fill="lightgreen" stroke="black" points="224.96,-227.13 194.79,-258.19 134.45,-258.19 104.28,-227.13 134.45,-196.08 194.79,-196.08 224.96,-227.13"/>
<text text-anchor="middle" x="164.62" y="-230.93" font-family="Times,serif" font-size="14.00">Reader</text>
<text text-anchor="middle" x="164.62" y="-215.93" font-family="Times,serif" font-size="14.00">(consume)</text>
</g>
<!-- recall_retrieve&#45;&gt;reader_consume -->
<g id="edge5" class="edge">
<title>recall_retrieve&#45;&gt;reader_consume</title>
<path fill="none" stroke="black" d="M164.62,-294.06C164.62,-286 164.62,-277.16 164.62,-268.64"/>
<polygon fill="black" stroke="black" points="168.12,-268.49 164.62,-258.49 161.12,-268.49 168.12,-268.49"/>
</g>
<!-- neoreader_consume -->
<g id="node15" class="node">
<title>neoreader_consume</title>
<polygon fill="lightgreen" stroke="black" points="443.36,-227.13 411.99,-258.19 349.25,-258.19 317.88,-227.13 349.25,-196.08 411.99,-196.08 443.36,-227.13"/>
<text text-anchor="middle" x="380.62" y="-230.93" font-family="Times,serif" font-size="14.00">NeoReader</text>
<text text-anchor="middle" x="380.62" y="-215.93" font-family="Times,serif" font-size="14.00">(consume)</text>
</g>
<!-- recall_retrieve&#45;&gt;neoreader_consume -->
<g id="edge26" class="edge">
<title>recall_retrieve&#45;&gt;neoreader_consume</title>
<path fill="none" stroke="black" d="M202.78,-306.07C211.27,-302.1 220.23,-297.95 228.62,-294.16 261.51,-279.31 298.66,-263.16 328,-250.55"/>
<polygon fill="black" stroke="black" points="329.42,-253.75 337.23,-246.59 326.66,-247.31 329.42,-253.75"/>
</g>
<!-- obsidian_retrieve -->
<g id="node8" class="node">
<title>obsidian_retrieve</title>
<polygon fill="lightblue" stroke="black" points="829.53,-325.19 802.08,-356.24 747.17,-356.24 719.71,-325.19 747.17,-294.13 802.08,-294.13 829.53,-325.19"/>
<text text-anchor="middle" x="774.62" y="-328.99" font-family="Times,serif" font-size="14.00">Obsidian</text>
<text text-anchor="middle" x="774.62" y="-313.99" font-family="Times,serif" font-size="14.00">(retrieve)</text>
</g>
<!-- obsidian_consume -->
<g id="node14" class="node">
<title>obsidian_consume</title>
<polygon fill="lightblue" stroke="black" points="834.96,-227.13 804.79,-258.19 744.45,-258.19 714.28,-227.13 744.45,-196.08 804.79,-196.08 834.96,-227.13"/>
<text text-anchor="middle" x="774.62" y="-230.93" font-family="Times,serif" font-size="14.00">Obsidian</text>
<text text-anchor="middle" x="774.62" y="-215.93" font-family="Times,serif" font-size="14.00">(consume)</text>
</g>
<!-- obsidian_retrieve&#45;&gt;obsidian_consume -->
<g id="edge10" class="edge">
<title>obsidian_retrieve&#45;&gt;obsidian_consume</title>
<path fill="none" stroke="black" d="M774.62,-294.06C774.62,-286 774.62,-277.16 774.62,-268.64"/>
<polygon fill="black" stroke="black" points="778.12,-268.49 774.62,-258.49 771.12,-268.49 778.12,-268.49"/>
</g>
<!-- librarything_retrieve&#45;&gt;neoreader_consume -->
<g id="edge15" class="edge">
<title>librarything_retrieve&#45;&gt;neoreader_consume</title>
<path fill="none" stroke="black" d="M431.41,-294.06C424.73,-285.38 417.34,-275.8 410.32,-266.68"/>
<polygon fill="black" stroke="black" points="412.88,-264.27 404.01,-258.49 407.34,-268.54 412.88,-264.27"/>
</g>
<!-- snipd_consume -->
<g id="node16" class="node">
<title>snipd_consume</title>
<polygon fill="lightgreen" stroke="black" points="658.96,-227.13 628.79,-258.19 568.45,-258.19 538.28,-227.13 568.45,-196.08 628.79,-196.08 658.96,-227.13"/>
<text text-anchor="middle" x="598.62" y="-230.93" font-family="Times,serif" font-size="14.00">Snipd</text>
<text text-anchor="middle" x="598.62" y="-215.93" font-family="Times,serif" font-size="14.00">(consume)</text>
</g>
<!-- snipd_retrieve&#45;&gt;snipd_consume -->
<g id="edge19" class="edge">
<title>snipd_retrieve&#45;&gt;snipd_consume</title>
<path fill="none" stroke="black" d="M599.31,-294.06C599.23,-286 599.13,-277.16 599.04,-268.64"/>
<polygon fill="black" stroke="black" points="602.54,-268.45 598.94,-258.49 595.54,-268.52 602.54,-268.45"/>
</g>
<!-- neoreader_retrieve&#45;&gt;neoreader_consume -->
<g id="edge27" class="edge">
<title>neoreader_retrieve&#45;&gt;neoreader_consume</title>
<path fill="none" stroke="black" d="M325.72,-294.06C333.02,-285.29 341.09,-275.6 348.75,-266.4"/>
<polygon fill="black" stroke="black" points="351.63,-268.41 355.34,-258.49 346.25,-263.93 351.63,-268.41"/>
</g>
<!-- youtube_consume -->
<g id="node17" class="node">
<title>youtube_consume</title>
<polygon fill="lightblue" stroke="black" points="973.96,-227.13 943.79,-258.19 883.45,-258.19 853.28,-227.13 883.45,-196.08 943.79,-196.08 973.96,-227.13"/>
<text text-anchor="middle" x="913.62" y="-230.93" font-family="Times,serif" font-size="14.00">YouTube</text>
<text text-anchor="middle" x="913.62" y="-215.93" font-family="Times,serif" font-size="14.00">(consume)</text>
</g>
<!-- youtube_retrieve&#45;&gt;youtube_consume -->
<g id="edge31" class="edge">
<title>youtube_retrieve&#45;&gt;youtube_consume</title>
<path fill="none" stroke="black" d="M913.62,-294.06C913.62,-286 913.62,-277.16 913.62,-268.64"/>
<polygon fill="black" stroke="black" points="917.12,-268.49 913.62,-258.49 910.12,-268.49 917.12,-268.49"/>
</g>
<!-- obsidian_extract -->
<g id="node19" class="node">
<title>obsidian_extract</title>
<polygon fill="lightgreen" stroke="black" points="827.77,-129.08 801.2,-160.13 748.05,-160.13 721.48,-129.08 748.05,-98.03 801.2,-98.03 827.77,-129.08"/>
<text text-anchor="middle" x="774.62" y="-132.88" font-family="Times,serif" font-size="14.00">Obsidian</text>
<text text-anchor="middle" x="774.62" y="-117.88" font-family="Times,serif" font-size="14.00">(extract)</text>
</g>
<!-- obsidian_consume&#45;&gt;obsidian_extract -->
<g id="edge11" class="edge">
<title>obsidian_consume&#45;&gt;obsidian_extract</title>
<path fill="none" stroke="black" d="M774.62,-196.01C774.62,-187.95 774.62,-179.11 774.62,-170.59"/>
<polygon fill="black" stroke="black" points="778.12,-170.43 774.62,-160.43 771.12,-170.43 778.12,-170.43"/>
</g>
<!-- readwise_extract -->
<g id="node18" class="node">
<title>readwise_extract</title>
<polygon fill="lightgreen" stroke="black" points="679.8,-129.08 651.71,-160.13 595.53,-160.13 567.45,-129.08 595.53,-98.03 651.71,-98.03 679.8,-129.08"/>
<text text-anchor="middle" x="623.62" y="-132.88" font-family="Times,serif" font-size="14.00">Readwise</text>
<text text-anchor="middle" x="623.62" y="-117.88" font-family="Times,serif" font-size="14.00">(extract)</text>
</g>
<!-- neoreader_consume&#45;&gt;readwise_extract -->
<g id="edge16" class="edge">
<title>neoreader_consume&#45;&gt;readwise_extract</title>
<path fill="none" stroke="black" d="M424.91,-208.63C466.87,-192.04 529.81,-167.16 573.57,-149.87"/>
<polygon fill="black" stroke="black" points="574.86,-153.12 582.87,-146.19 572.29,-146.61 574.86,-153.12"/>
</g>
<!-- snipd_consume&#45;&gt;readwise_extract -->
<g id="edge20" class="edge">
<title>snipd_consume&#45;&gt;readwise_extract</title>
<path fill="none" stroke="black" d="M606.46,-196.01C608.58,-187.86 610.91,-178.91 613.15,-170.31"/>
<polygon fill="black" stroke="black" points="616.59,-170.99 615.72,-160.43 609.82,-169.23 616.59,-170.99"/>
</g>
<!-- youtube_consume&#45;&gt;obsidian_extract -->
<g id="edge32" class="edge">
<title>youtube_consume&#45;&gt;obsidian_extract</title>
<path fill="none" stroke="black" d="M877.83,-201.4C859.05,-188.42 835.94,-172.45 816.35,-158.92"/>
<polygon fill="black" stroke="black" points="818.13,-155.89 807.91,-153.08 814.15,-161.65 818.13,-155.89"/>
</g>
<!-- recall_refine -->
<g id="node20" class="node">
<title>recall_refine</title>
<polygon fill="lightgreen" stroke="black" points="670.2,-31.03 646.91,-62.08 600.33,-62.08 577.04,-31.03 600.33,0.03 646.91,0.03 670.2,-31.03"/>
<text text-anchor="middle" x="623.62" y="-34.83" font-family="Times,serif" font-size="14.00">Recall</text>
<text text-anchor="middle" x="623.62" y="-19.83" font-family="Times,serif" font-size="14.00">(refine)</text>
</g>
<!-- readwise_extract&#45;&gt;recall_refine -->
<g id="edge7" class="edge">
<title>readwise_extract&#45;&gt;recall_refine</title>
<path fill="none" stroke="black" d="M623.62,-97.95C623.62,-89.89 623.62,-81.05 623.62,-72.53"/>
<polygon fill="black" stroke="black" points="627.12,-72.38 623.62,-62.38 620.12,-72.38 627.12,-72.38"/>
</g>
<!-- obsidian_refine -->
<g id="node21" class="node">
<title>obsidian_refine</title>
<polygon fill="lightgreen" stroke="black" points="798.77,-31.03 772.2,-62.08 719.05,-62.08 692.48,-31.03 719.05,0.03 772.2,0.03 798.77,-31.03"/>
<text text-anchor="middle" x="745.62" y="-34.83" font-family="Times,serif" font-size="14.00">Obsidian</text>
<text text-anchor="middle" x="745.62" y="-19.83" font-family="Times,serif" font-size="14.00">(refine)</text>
</g>
<!-- readwise_extract&#45;&gt;obsidian_refine -->
<g id="edge8" class="edge">
<title>readwise_extract&#45;&gt;obsidian_refine</title>
<path fill="none" stroke="black" d="M656,-102.59C671.39,-90.48 689.92,-75.88 706.13,-63.12"/>
<polygon fill="black" stroke="black" points="708.67,-65.57 714.36,-56.64 704.34,-60.07 708.67,-65.57"/>
</g>
<!-- obsidian_extract&#45;&gt;obsidian_refine -->
<g id="edge12" class="edge">
<title>obsidian_extract&#45;&gt;obsidian_refine</title>
<path fill="none" stroke="black" d="M765.53,-97.95C763.04,-89.72 760.31,-80.66 757.68,-71.97"/>
<polygon fill="black" stroke="black" points="761.03,-70.94 754.79,-62.38 754.33,-72.96 761.03,-70.94"/>
</g>
<!-- source_web_article -->
<g id="node22" class="node">
<title>source_web_article</title>
<polygon fill="none" stroke="black" points="108.62,-526.27 26.62,-526.27 26.62,-490.27 108.62,-490.27 108.62,-526.27"/>
<text text-anchor="middle" x="67.62" y="-504.57" font-family="Times,serif" font-size="14.00">Web Article</text>
</g>
<!-- source_web_article&#45;&gt;reader_collect -->
<g id="edge1" class="edge">
<title>source_web_article&#45;&gt;reader_collect</title>
<path fill="none" stroke="black" d="M64.1,-490.07C62.57,-482.61 60.72,-473.54 58.88,-464.55"/>
<polygon fill="black" stroke="black" points="62.26,-463.61 56.82,-454.52 55.4,-465.02 62.26,-463.61"/>
</g>
<!-- source_web_article&#45;&gt;recall_collect -->
<g id="edge2" class="edge">
<title>source_web_article&#45;&gt;recall_collect</title>
<path fill="none" stroke="black" d="M88.76,-490.07C101.16,-479.97 117.21,-466.9 131.74,-455.08"/>
<polygon fill="black" stroke="black" points="134.07,-457.69 139.62,-448.67 129.65,-452.26 134.07,-457.69"/>
</g>
<!-- source_annotations&amp;highlights -->
<g id="node23" class="node">
<title>source_annotations&amp;highlights</title>
<polygon fill="none" stroke="black" points="725.12,-526.27 648.12,-526.27 648.12,-490.27 725.12,-490.27 725.12,-526.27"/>
<text text-anchor="middle" x="686.62" y="-504.57" font-family="Times,serif" font-size="14.00">Annotation</text>
</g>
<!-- source_annotations&amp;highlights&#45;&gt;readwise_extract -->
<g id="edge6" class="edge">
<title>source_annotations&amp;highlights&#45;&gt;readwise_extract</title>
<path fill="none" stroke="black" d="M688.62,-490.15C693.57,-442.2 703.59,-303.07 667.62,-196.11 664.43,-186.61 659.5,-177.18 654.07,-168.54"/>
<polygon fill="black" stroke="black" points="656.98,-166.59 648.53,-160.2 651.15,-170.46 656.98,-166.59"/>
</g>
<!-- source_note -->
<g id="node24" class="node">
<title>source_note</title>
<polygon fill="none" stroke="black" points="801.62,-526.27 747.62,-526.27 747.62,-490.27 801.62,-490.27 801.62,-526.27"/>
<text text-anchor="middle" x="774.62" y="-504.57" font-family="Times,serif" font-size="14.00">Note</text>
</g>
<!-- source_note&#45;&gt;obsidian_retrieve -->
<g id="edge9" class="edge">
<title>source_note&#45;&gt;obsidian_retrieve</title>
<path fill="none" stroke="black" d="M774.62,-490.23C774.62,-462.23 774.62,-405.7 774.62,-366.9"/>
<polygon fill="black" stroke="black" points="778.12,-366.47 774.62,-356.47 771.12,-366.47 778.12,-366.47"/>
</g>
<!-- source_book -->
<g id="node25" class="node">
<title>source_book</title>
<polygon fill="none" stroke="black" points="481.62,-526.27 427.62,-526.27 427.62,-490.27 481.62,-490.27 481.62,-526.27"/>
<text text-anchor="middle" x="454.62" y="-504.57" font-family="Times,serif" font-size="14.00">Book</text>
</g>
<!-- source_book&#45;&gt;librarything_collect -->
<g id="edge13" class="edge">
<title>source_book&#45;&gt;librarything_collect</title>
<path fill="none" stroke="black" d="M454.62,-490.07C454.62,-482.61 454.62,-473.54 454.62,-464.55"/>
<polygon fill="black" stroke="black" points="458.12,-464.52 454.62,-454.52 451.12,-464.52 458.12,-464.52"/>
</g>
<!-- source_podcast -->
<g id="node26" class="node">
<title>source_podcast</title>
<polygon fill="none" stroke="black" points="629.12,-526.27 570.12,-526.27 570.12,-490.27 629.12,-490.27 629.12,-526.27"/>
<text text-anchor="middle" x="599.62" y="-504.57" font-family="Times,serif" font-size="14.00">Podcast</text>
</g>
<!-- source_podcast&#45;&gt;snipd_collect -->
<g id="edge17" class="edge">
<title>source_podcast&#45;&gt;snipd_collect</title>
<path fill="none" stroke="black" d="M599.62,-490.07C599.62,-482.61 599.62,-473.54 599.62,-464.55"/>
<polygon fill="black" stroke="black" points="603.12,-464.52 599.62,-454.52 596.12,-464.52 603.12,-464.52"/>
</g>
<!-- source_research_paper -->
<g id="node27" class="node">
<title>source_research_paper</title>
<polygon fill="none" stroke="black" points="232.12,-526.27 131.12,-526.27 131.12,-490.27 232.12,-490.27 232.12,-526.27"/>
<text text-anchor="middle" x="181.62" y="-504.57" font-family="Times,serif" font-size="14.00">Research Paper</text>
</g>
<!-- source_research_paper&#45;&gt;recall_collect -->
<g id="edge21" class="edge">
<title>source_research_paper&#45;&gt;recall_collect</title>
<path fill="none" stroke="black" d="M179.14,-490.07C178.06,-482.61 176.75,-473.54 175.45,-464.55"/>
<polygon fill="black" stroke="black" points="178.89,-463.91 174,-454.52 171.97,-464.92 178.89,-463.91"/>
</g>
<!-- source_research_paper&#45;&gt;neoreader_collect -->
<g id="edge22" class="edge">
<title>source_research_paper&#45;&gt;neoreader_collect</title>
<path fill="none" stroke="black" d="M205.99,-490.27C220.24,-480.33 238.67,-467.47 255.47,-455.74"/>
<polygon fill="black" stroke="black" points="257.88,-458.33 264.08,-449.74 253.88,-452.59 257.88,-458.33"/>
</g>
<!-- source_document -->
<g id="node28" class="node">
<title>source_document</title>
<polygon fill="none" stroke="black" points="337.62,-526.27 263.62,-526.27 263.62,-490.27 337.62,-490.27 337.62,-526.27"/>
<text text-anchor="middle" x="300.62" y="-504.57" font-family="Times,serif" font-size="14.00">Document</text>
</g>
<!-- source_document&#45;&gt;neoreader_collect -->
<g id="edge28" class="edge">
<title>source_document&#45;&gt;neoreader_collect</title>
<path fill="none" stroke="black" d="M300.62,-490.07C300.62,-482.61 300.62,-473.54 300.62,-464.55"/>
<polygon fill="black" stroke="black" points="304.12,-464.52 300.62,-454.52 297.12,-464.52 304.12,-464.52"/>
</g>
<!-- source_youtube_video -->
<g id="node29" class="node">
<title>source_youtube_video</title>
<polygon fill="none" stroke="black" points="964.62,-526.27 862.62,-526.27 862.62,-490.27 964.62,-490.27 964.62,-526.27"/>
<text text-anchor="middle" x="913.62" y="-504.57" font-family="Times,serif" font-size="14.00">YouTube Video</text>
</g>
<!-- source_youtube_video&#45;&gt;youtube_collect -->
<g id="edge29" class="edge">
<title>source_youtube_video&#45;&gt;youtube_collect</title>
<path fill="none" stroke="black" d="M913.62,-490.07C913.62,-482.61 913.62,-473.54 913.62,-464.55"/>
<polygon fill="black" stroke="black" points="917.12,-464.52 913.62,-454.52 910.12,-464.52 917.12,-464.52"/>
</g>
</g>
</svg>
