<?xml version="1.0" encoding="UTF-8" standalone="no"?>
<!DOCTYPE svg PUBLIC "-//W3C//DTD SVG 1.1//EN"
 "http://www.w3.org/Graphics/SVG/1.1/DTD/svg11.dtd">
<!-- Generated by graphviz version 2.43.0 (0)
 -->
<!-- Title: %3 Pages: 1 -->
<svg width="956pt" height="534pt"
 viewBox="0.00 0.00 956.04 534.27" xmlns="http://www.w3.org/2000/svg" xmlns:xlink="http://www.w3.org/1999/xlink">
<g id="graph0" class="graph" transform="scale(1 1) rotate(0) translate(4 530.27)">
<title>%3</title>
<!-- reader_collect -->
<g id="node1" class="node">
<title>reader_collect</title>
<polygon fill="lightgreen" stroke="black" points="101.37,-423.24 76,-454.3 25.25,-454.3 -0.12,-423.24 25.25,-392.19 76,-392.19 101.37,-423.24"/>
<text text-anchor="middle" x="50.62" y="-427.04" font-family="Times,serif" font-size="14.00">reader</text>
<text text-anchor="middle" x="50.62" y="-412.04" font-family="Times,serif" font-size="14.00">(collect)</text>
</g>
<!-- recall_retrieve -->
<g id="node7" class="node">
<title>recall_retrieve</title>
<polygon fill="lightgreen" stroke="black" points="220.53,-325.19 193.08,-356.24 138.17,-356.24 110.71,-325.19 138.17,-294.13 193.08,-294.13 220.53,-325.19"/>
<text text-anchor="middle" x="165.62" y="-328.99" font-family="Times,serif" font-size="14.00">recall</text>
<text text-anchor="middle" x="165.62" y="-313.99" font-family="Times,serif" font-size="14.00">(retrieve)</text>
</g>
<!-- reader_collect&#45;&gt;recall_retrieve -->
<g id="edge3" class="edge">
<title>reader_collect&#45;&gt;recall_retrieve</title>
<path fill="none" stroke="black" d="M80.54,-397.26C94.46,-385.62 111.22,-371.63 126.16,-359.15"/>
<polygon fill="black" stroke="black" points="128.82,-361.49 134.25,-352.39 124.33,-356.12 128.82,-361.49"/>
</g>
<!-- recall_collect -->
<g id="node2" class="node">
<title>recall_collect</title>
<polygon fill="lightgreen" stroke="black" points="220.37,-423.24 195,-454.3 144.25,-454.3 118.88,-423.24 144.25,-392.19 195,-392.19 220.37,-423.24"/>
<text text-anchor="middle" x="169.62" y="-427.04" font-family="Times,serif" font-size="14.00">recall</text>
<text text-anchor="middle" x="169.62" y="-412.04" font-family="Times,serif" font-size="14.00">(collect)</text>
</g>
<!-- recall_collect&#45;&gt;recall_retrieve -->
<g id="edge4" class="edge">
<title>recall_collect&#45;&gt;recall_retrieve</title>
<path fill="none" stroke="black" d="M168.37,-392.11C168.03,-384.06 167.66,-375.21 167.31,-366.7"/>
<polygon fill="black" stroke="black" points="170.8,-366.39 166.89,-356.54 163.81,-366.68 170.8,-366.39"/>
</g>
<!-- neoreader_retrieve -->
<g id="node11" class="node">
<title>neoreader_retrieve</title>
<polygon fill="orange" stroke="black" points="352.93,-325.19 324.28,-356.24 266.97,-356.24 238.31,-325.19 266.97,-294.13 324.28,-294.13 352.93,-325.19"/>
<text text-anchor="middle" x="295.62" y="-328.99" font-family="Times,serif" font-size="14.00">neoreader</text>
<text text-anchor="middle" x="295.62" y="-313.99" font-family="Times,serif" font-size="14.00">(retrieve)</text>
</g>
<!-- recall_collect&#45;&gt;neoreader_retrieve -->
<g id="edge24" class="edge">
<title>recall_collect&#45;&gt;neoreader_retrieve</title>
<path fill="none" stroke="black" d="M200.45,-398.74C216.6,-386.43 236.61,-371.17 254.11,-357.83"/>
<polygon fill="black" stroke="black" points="256.64,-360.31 262.47,-351.46 252.4,-354.74 256.64,-360.31"/>
</g>
<!-- librarything_collect -->
<g id="node3" class="node">
<title>librarything_collect</title>
<polygon fill="lightblue" stroke="black" points="500.76,-423.24 468.19,-454.3 403.05,-454.3 370.48,-423.24 403.05,-392.19 468.19,-392.19 500.76,-423.24"/>
<text text-anchor="middle" x="435.62" y="-427.04" font-family="Times,serif" font-size="14.00">librarything</text>
<text text-anchor="middle" x="435.62" y="-412.04" font-family="Times,serif" font-size="14.00">(collect)</text>
</g>
<!-- librarything_retrieve -->
<g id="node9" class="node">
<title>librarything_retrieve</title>
<polygon fill="orange" stroke="black" points="500.76,-325.19 468.19,-356.24 403.05,-356.24 370.48,-325.19 403.05,-294.13 468.19,-294.13 500.76,-325.19"/>
<text text-anchor="middle" x="435.62" y="-328.99" font-family="Times,serif" font-size="14.00">librarything</text>
<text text-anchor="middle" x="435.62" y="-313.99" font-family="Times,serif" font-size="14.00">(retrieve)</text>
</g>
<!-- librarything_collect&#45;&gt;librarything_retrieve -->
<g id="edge14" class="edge">
<title>librarything_collect&#45;&gt;librarything_retrieve</title>
<path fill="none" stroke="black" d="M435.62,-392.11C435.62,-384.06 435.62,-375.21 435.62,-366.7"/>
<polygon fill="black" stroke="black" points="439.12,-366.54 435.62,-356.54 432.12,-366.54 439.12,-366.54"/>
</g>
<!-- snipd_collect -->
<g id="node4" class="node">
<title>snipd_collect</title>
<polygon fill="lightblue" stroke="black" points="624.37,-423.24 599,-454.3 548.25,-454.3 522.88,-423.24 548.25,-392.19 599,-392.19 624.37,-423.24"/>
<text text-anchor="middle" x="573.62" y="-427.04" font-family="Times,serif" font-size="14.00">snipd</text>
<text text-anchor="middle" x="573.62" y="-412.04" font-family="Times,serif" font-size="14.00">(collect)</text>
</g>
<!-- snipd_retrieve -->
<g id="node10" class="node">
<title>snipd_retrieve</title>
<polygon fill="orange" stroke="black" points="628.53,-325.19 601.08,-356.24 546.17,-356.24 518.71,-325.19 546.17,-294.13 601.08,-294.13 628.53,-325.19"/>
<text text-anchor="middle" x="573.62" y="-328.99" font-family="Times,serif" font-size="14.00">snipd</text>
<text text-anchor="middle" x="573.62" y="-313.99" font-family="Times,serif" font-size="14.00">(retrieve)</text>
</g>
<!-- snipd_collect&#45;&gt;snipd_retrieve -->
<g id="edge18" class="edge">
<title>snipd_collect&#45;&gt;snipd_retrieve</title>
<path fill="none" stroke="black" d="M573.62,-392.11C573.62,-384.06 573.62,-375.21 573.62,-366.7"/>
<polygon fill="black" stroke="black" points="577.12,-366.54 573.62,-356.54 570.12,-366.54 577.12,-366.54"/>
</g>
<!-- neoreader_collect -->
<g id="node5" class="node">
<title>neoreader_collect</title>
<polygon fill="lightblue" stroke="black" points="352.93,-423.24 324.28,-454.3 266.97,-454.3 238.31,-423.24 266.97,-392.19 324.28,-392.19 352.93,-423.24"/>
<text text-anchor="middle" x="295.62" y="-427.04" font-family="Times,serif" font-size="14.00">neoreader</text>
<text text-anchor="middle" x="295.62" y="-412.04" font-family="Times,serif" font-size="14.00">(collect)</text>
</g>
<!-- neoreader_collect&#45;&gt;recall_retrieve -->
<g id="edge23" class="edge">
<title>neoreader_collect&#45;&gt;recall_retrieve</title>
<path fill="none" stroke="black" d="M261.81,-397.26C245,-384.84 224.54,-369.72 206.82,-356.63"/>
<polygon fill="black" stroke="black" points="208.49,-353.51 198.37,-350.39 204.34,-359.14 208.49,-353.51"/>
</g>
<!-- neoreader_collect&#45;&gt;neoreader_retrieve -->
<g id="edge25" class="edge">
<title>neoreader_collect&#45;&gt;neoreader_retrieve</title>
<path fill="none" stroke="black" d="M295.62,-392.11C295.62,-384.06 295.62,-375.21 295.62,-366.7"/>
<polygon fill="black" stroke="black" points="299.12,-366.54 295.62,-356.54 292.12,-366.54 299.12,-366.54"/>
</g>
<!-- youtube_collect -->
<g id="node6" class="node">
<title>youtube_collect</title>
<polygon fill="lightblue" stroke="black" points="938.37,-423.24 913,-454.3 862.25,-454.3 836.88,-423.24 862.25,-392.19 913,-392.19 938.37,-423.24"/>
<text text-anchor="middle" x="887.62" y="-427.04" font-family="Times,serif" font-size="14.00">youtube</text>
<text text-anchor="middle" x="887.62" y="-412.04" font-family="Times,serif" font-size="14.00">(collect)</text>
</g>
<!-- youtube_retrieve -->
<g id="node12" class="node">
<title>youtube_retrieve</title>
<polygon fill="orange" stroke="black" points="942.53,-325.19 915.08,-356.24 860.17,-356.24 832.71,-325.19 860.17,-294.13 915.08,-294.13 942.53,-325.19"/>
<text text-anchor="middle" x="887.62" y="-328.99" font-family="Times,serif" font-size="14.00">youtube</text>
<text text-anchor="middle" x="887.62" y="-313.99" font-family="Times,serif" font-size="14.00">(retrieve)</text>
</g>
<!-- youtube_collect&#45;&gt;youtube_retrieve -->
<g id="edge30" class="edge">
<title>youtube_collect&#45;&gt;youtube_retrieve</title>
<path fill="none" stroke="black" d="M887.62,-392.11C887.62,-384.06 887.62,-375.21 887.62,-366.7"/>
<polygon fill="black" stroke="black" points="891.12,-366.54 887.62,-356.54 884.12,-366.54 891.12,-366.54"/>
</g>
<!-- reader_consume -->
<g id="node13" class="node">
<title>reader_consume</title>
<polygon fill="lightgreen" stroke="black" points="225.96,-227.13 195.79,-258.19 135.45,-258.19 105.28,-227.13 135.45,-196.08 195.79,-196.08 225.96,-227.13"/>
<text text-anchor="middle" x="165.62" y="-230.93" font-family="Times,serif" font-size="14.00">reader</text>
<text text-anchor="middle" x="165.62" y="-215.93" font-family="Times,serif" font-size="14.00">(consume)</text>
</g>
<!-- recall_retrieve&#45;&gt;reader_consume -->
<g id="edge5" class="edge">
<title>recall_retrieve&#45;&gt;reader_consume</title>
<path fill="none" stroke="black" d="M165.62,-294.06C165.62,-286 165.62,-277.16 165.62,-268.64"/>
<polygon fill="black" stroke="black" points="169.12,-268.49 165.62,-258.49 162.12,-268.49 169.12,-268.49"/>
</g>
<!-- neoreader_consume -->
<g id="node15" class="node">
<title>neoreader_consume</title>
<polygon fill="lightgreen" stroke="black" points="429.96,-227.13 399.79,-258.19 339.45,-258.19 309.28,-227.13 339.45,-196.08 399.79,-196.08 429.96,-227.13"/>
<text text-anchor="middle" x="369.62" y="-230.93" font-family="Times,serif" font-size="14.00">neoreader</text>
<text text-anchor="middle" x="369.62" y="-215.93" font-family="Times,serif" font-size="14.00">(consume)</text>
</g>
<!-- recall_retrieve&#45;&gt;neoreader_consume -->
<g id="edge26" class="edge">
<title>recall_retrieve&#45;&gt;neoreader_consume</title>
<path fill="none" stroke="black" d="M203.99,-306.12C236.63,-290.76 283.73,-268.58 319.36,-251.8"/>
<polygon fill="black" stroke="black" points="321.07,-254.87 328.62,-247.44 318.09,-248.53 321.07,-254.87"/>
</g>
<!-- obsidian_retrieve -->
<g id="node8" class="node">
<title>obsidian_retrieve</title>
<polygon fill="lightblue" stroke="black" points="803.53,-325.19 776.08,-356.24 721.17,-356.24 693.71,-325.19 721.17,-294.13 776.08,-294.13 803.53,-325.19"/>
<text text-anchor="middle" x="748.62" y="-328.99" font-family="Times,serif" font-size="14.00">obsidian</text>
<text text-anchor="middle" x="748.62" y="-313.99" font-family="Times,serif" font-size="14.00">(retrieve)</text>
</g>
<!-- obsidian_consume -->
<g id="node14" class="node">
<title>obsidian_consume</title>
<polygon fill="lightblue" stroke="black" points="808.96,-227.13 778.79,-258.19 718.45,-258.19 688.28,-227.13 718.45,-196.08 778.79,-196.08 808.96,-227.13"/>
<text text-anchor="middle" x="748.62" y="-230.93" font-family="Times,serif" font-size="14.00">obsidian</text>
<text text-anchor="middle" x="748.62" y="-215.93" font-family="Times,serif" font-size="14.00">(consume)</text>
</g>
<!-- obsidian_retrieve&#45;&gt;obsidian_consume -->
<g id="edge10" class="edge">
<title>obsidian_retrieve&#45;&gt;obsidian_consume</title>
<path fill="none" stroke="black" d="M748.62,-294.06C748.62,-286 748.62,-277.16 748.62,-268.64"/>
<polygon fill="black" stroke="black" points="752.12,-268.49 748.62,-258.49 745.12,-268.49 752.12,-268.49"/>
</g>
<!-- librarything_retrieve&#45;&gt;neoreader_consume -->
<g id="edge15" class="edge">
<title>librarything_retrieve&#45;&gt;neoreader_consume</title>
<path fill="none" stroke="black" d="M414.92,-294.06C409.02,-285.47 402.51,-275.99 396.3,-266.96"/>
<polygon fill="black" stroke="black" points="399.03,-264.75 390.48,-258.49 393.26,-268.71 399.03,-264.75"/>
</g>
<!-- snipd_consume -->
<g id="node16" class="node">
<title>snipd_consume</title>
<polygon fill="lightgreen" stroke="black" points="632.96,-227.13 602.79,-258.19 542.45,-258.19 512.28,-227.13 542.45,-196.08 602.79,-196.08 632.96,-227.13"/>
<text text-anchor="middle" x="572.62" y="-230.93" font-family="Times,serif" font-size="14.00">snipd</text>
<text text-anchor="middle" x="572.62" y="-215.93" font-family="Times,serif" font-size="14.00">(consume)</text>
</g>
<!-- snipd_retrieve&#45;&gt;snipd_consume -->
<g id="edge19" class="edge">
<title>snipd_retrieve&#45;&gt;snipd_consume</title>
<path fill="none" stroke="black" d="M573.31,-294.06C573.23,-286 573.13,-277.16 573.04,-268.64"/>
<polygon fill="black" stroke="black" points="576.54,-268.45 572.94,-258.49 569.54,-268.52 576.54,-268.45"/>
</g>
<!-- neoreader_retrieve&#45;&gt;neoreader_consume -->
<g id="edge27" class="edge">
<title>neoreader_retrieve&#45;&gt;neoreader_consume</title>
<path fill="none" stroke="black" d="M318.83,-294.06C325.52,-285.38 332.9,-275.8 339.93,-266.68"/>
<polygon fill="black" stroke="black" points="342.91,-268.54 346.24,-258.49 337.36,-264.27 342.91,-268.54"/>
</g>
<!-- youtube_consume -->
<g id="node17" class="node">
<title>youtube_consume</title>
<polygon fill="lightblue" stroke="black" points="947.96,-227.13 917.79,-258.19 857.45,-258.19 827.28,-227.13 857.45,-196.08 917.79,-196.08 947.96,-227.13"/>
<text text-anchor="middle" x="887.62" y="-230.93" font-family="Times,serif" font-size="14.00">youtube</text>
<text text-anchor="middle" x="887.62" y="-215.93" font-family="Times,serif" font-size="14.00">(consume)</text>
</g>
<!-- youtube_retrieve&#45;&gt;youtube_consume -->
<g id="edge31" class="edge">
<title>youtube_retrieve&#45;&gt;youtube_consume</title>
<path fill="none" stroke="black" d="M887.62,-294.06C887.62,-286 887.62,-277.16 887.62,-268.64"/>
<polygon fill="black" stroke="black" points="891.12,-268.49 887.62,-258.49 884.12,-268.49 891.12,-268.49"/>
</g>
<!-- obsidian_extract -->
<g id="node19" class="node">
<title>obsidian_extract</title>
<polygon fill="lightgreen" stroke="black" points="799.37,-129.08 774,-160.13 723.25,-160.13 697.88,-129.08 723.25,-98.03 774,-98.03 799.37,-129.08"/>
<text text-anchor="middle" x="748.62" y="-132.88" font-family="Times,serif" font-size="14.00">obsidian</text>
<text text-anchor="middle" x="748.62" y="-117.88" font-family="Times,serif" font-size="14.00">(extract)</text>
</g>
<!-- obsidian_consume&#45;&gt;obsidian_extract -->
<g id="edge11" class="edge">
<title>obsidian_consume&#45;&gt;obsidian_extract</title>
<path fill="none" stroke="black" d="M748.62,-196.01C748.62,-187.95 748.62,-179.11 748.62,-170.59"/>
<polygon fill="black" stroke="black" points="752.12,-170.43 748.62,-160.43 745.12,-170.43 752.12,-170.43"/>
</g>
<!-- readwise_extract -->
<g id="node18" class="node">
<title>readwise_extract</title>
<polygon fill="lightgreen" stroke="black" points="652.77,-129.08 626.2,-160.13 573.05,-160.13 546.48,-129.08 573.05,-98.03 626.2,-98.03 652.77,-129.08"/>
<text text-anchor="middle" x="599.62" y="-132.88" font-family="Times,serif" font-size="14.00">readwise</text>
<text text-anchor="middle" x="599.62" y="-117.88" font-family="Times,serif" font-size="14.00">(extract)</text>
</g>
<!-- neoreader_consume&#45;&gt;readwise_extract -->
<g id="edge16" class="edge">
<title>neoreader_consume&#45;&gt;readwise_extract</title>
<path fill="none" stroke="black" d="M412.08,-208.4C451.57,-191.91 510.37,-167.36 551.57,-150.15"/>
<polygon fill="black" stroke="black" points="552.98,-153.35 560.86,-146.27 550.29,-146.89 552.98,-153.35"/>
</g>
<!-- snipd_consume&#45;&gt;readwise_extract -->
<g id="edge20" class="edge">
<title>snipd_consume&#45;&gt;readwise_extract</title>
<path fill="none" stroke="black" d="M581.09,-196.01C583.38,-187.86 585.9,-178.91 588.32,-170.31"/>
<polygon fill="black" stroke="black" points="591.75,-171.01 591.09,-160.43 585.02,-169.11 591.75,-171.01"/>
</g>
<!-- youtube_consume&#45;&gt;obsidian_extract -->
<g id="edge32" class="edge">
<title>youtube_consume&#45;&gt;obsidian_extract</title>
<path fill="none" stroke="black" d="M851.83,-201.4C832.68,-188.17 809.04,-171.83 789.21,-158.13"/>
<polygon fill="black" stroke="black" points="791.19,-155.24 780.97,-152.43 787.21,-161 791.19,-155.24"/>
</g>
<!-- recall_refine -->
<g id="node20" class="node">
<title>recall_refine</title>
<polygon fill="lightgreen" stroke="black" points="646.2,-31.03 622.91,-62.08 576.33,-62.08 553.04,-31.03 576.33,0.03 622.91,0.03 646.2,-31.03"/>
<text text-anchor="middle" x="599.62" y="-34.83" font-family="Times,serif" font-size="14.00">recall</text>
<text text-anchor="middle" x="599.62" y="-19.83" font-family="Times,serif" font-size="14.00">(refine)</text>
</g>
<!-- readwise_extract&#45;&gt;recall_refine -->
<g id="edge7" class="edge">
<title>readwise_extract&#45;&gt;recall_refine</title>
<path fill="none" stroke="black" d="M599.62,-97.95C599.62,-89.89 599.62,-81.05 599.62,-72.53"/>
<polygon fill="black" stroke="black" points="603.12,-72.38 599.62,-62.38 596.12,-72.38 603.12,-72.38"/>
</g>
<!-- obsidian_refine -->
<g id="node21" class="node">
<title>obsidian_refine</title>
<polygon fill="lightgreen" stroke="black" points="768.37,-31.03 743,-62.08 692.25,-62.08 666.88,-31.03 692.25,0.03 743,0.03 768.37,-31.03"/>
<text text-anchor="middle" x="717.62" y="-34.83" font-family="Times,serif" font-size="14.00">obsidian</text>
<text text-anchor="middle" x="717.62" y="-19.83" font-family="Times,serif" font-size="14.00">(refine)</text>
</g>
<!-- readwise_extract&#45;&gt;obsidian_refine -->
<g id="edge8" class="edge">
<title>readwise_extract&#45;&gt;obsidian_refine</title>
<path fill="none" stroke="black" d="M630.63,-102.84C645.51,-90.73 663.49,-76.09 679.24,-63.27"/>
<polygon fill="black" stroke="black" points="681.69,-65.79 687.23,-56.76 677.27,-60.36 681.69,-65.79"/>
</g>
<!-- obsidian_extract&#45;&gt;obsidian_refine -->
<g id="edge12" class="edge">
<title>obsidian_extract&#45;&gt;obsidian_refine</title>
<path fill="none" stroke="black" d="M738.9,-97.95C736.24,-89.72 733.32,-80.66 730.51,-71.97"/>
<polygon fill="black" stroke="black" points="733.82,-70.82 727.42,-62.38 727.16,-72.97 733.82,-70.82"/>
</g>
<!-- source_web_article -->
<g id="node22" class="node">
<title>source_web_article</title>
<polygon fill="none" stroke="black" points="106.62,-526.27 24.62,-526.27 24.62,-490.27 106.62,-490.27 106.62,-526.27"/>
<text text-anchor="middle" x="65.62" y="-504.57" font-family="Times,serif" font-size="14.00">Web Article</text>
</g>
<!-- source_web_article&#45;&gt;reader_collect -->
<g id="edge1" class="edge">
<title>source_web_article&#45;&gt;reader_collect</title>
<path fill="none" stroke="black" d="M62.51,-490.07C61.17,-482.61 59.53,-473.54 57.9,-464.55"/>
<polygon fill="black" stroke="black" points="61.31,-463.74 56.09,-454.52 54.43,-464.98 61.31,-463.74"/>
</g>
<!-- source_web_article&#45;&gt;recall_collect -->
<g id="edge2" class="edge">
<title>source_web_article&#45;&gt;recall_collect</title>
<path fill="none" stroke="black" d="M86.92,-490.27C99.66,-480.1 116.22,-466.88 131.18,-454.94"/>
<polygon fill="black" stroke="black" points="133.65,-457.44 139.29,-448.46 129.29,-451.97 133.65,-457.44"/>
</g>
<!-- source_annotation -->
<g id="node23" class="node">
<title>source_annotation</title>
<polygon fill="none" stroke="black" points="699.12,-526.27 622.12,-526.27 622.12,-490.27 699.12,-490.27 699.12,-526.27"/>
<text text-anchor="middle" x="660.62" y="-504.57" font-family="Times,serif" font-size="14.00">Annotation</text>
</g>
<!-- source_annotation&#45;&gt;readwise_extract -->
<g id="edge6" class="edge">
<title>source_annotation&#45;&gt;readwise_extract</title>
<path fill="none" stroke="black" d="M662.5,-490.19C667.15,-442.34 676.45,-303.44 641.62,-196.11 638.6,-186.8 633.96,-177.51 628.85,-168.96"/>
<polygon fill="black" stroke="black" points="631.7,-166.92 623.4,-160.35 625.79,-170.67 631.7,-166.92"/>
</g>
<!-- source_note -->
<g id="node24" class="node">
<title>source_note</title>
<polygon fill="none" stroke="black" points="775.62,-526.27 721.62,-526.27 721.62,-490.27 775.62,-490.27 775.62,-526.27"/>
<text text-anchor="middle" x="748.62" y="-504.57" font-family="Times,serif" font-size="14.00">Note</text>
</g>
<!-- source_note&#45;&gt;obsidian_retrieve -->
<g id="edge9" class="edge">
<title>source_note&#45;&gt;obsidian_retrieve</title>
<path fill="none" stroke="black" d="M748.62,-490.23C748.62,-462.23 748.62,-405.7 748.62,-366.9"/>
<polygon fill="black" stroke="black" points="752.12,-366.47 748.62,-356.47 745.12,-366.47 752.12,-366.47"/>
</g>
<!-- source_book -->
<g id="node25" class="node">
<title>source_book</title>
<polygon fill="none" stroke="black" points="462.62,-526.27 408.62,-526.27 408.62,-490.27 462.62,-490.27 462.62,-526.27"/>
<text text-anchor="middle" x="435.62" y="-504.57" font-family="Times,serif" font-size="14.00">Book</text>
</g>
<!-- source_book&#45;&gt;librarything_collect -->
<g id="edge13" class="edge">
<title>source_book&#45;&gt;librarything_collect</title>
<path fill="none" stroke="black" d="M435.62,-490.07C435.62,-482.61 435.62,-473.54 435.62,-464.55"/>
<polygon fill="black" stroke="black" points="439.12,-464.52 435.62,-454.52 432.12,-464.52 439.12,-464.52"/>
</g>
<!-- source_podcast -->
<g id="node26" class="node">
<title>source_podcast</title>
<polygon fill="none" stroke="black" points="603.12,-526.27 544.12,-526.27 544.12,-490.27 603.12,-490.27 603.12,-526.27"/>
<text text-anchor="middle" x="573.62" y="-504.57" font-family="Times,serif" font-size="14.00">Podcast</text>
</g>
<!-- source_podcast&#45;&gt;snipd_collect -->
<g id="edge17" class="edge">
<title>source_podcast&#45;&gt;snipd_collect</title>
<path fill="none" stroke="black" d="M573.62,-490.07C573.62,-482.61 573.62,-473.54 573.62,-464.55"/>
<polygon fill="black" stroke="black" points="577.12,-464.52 573.62,-454.52 570.12,-464.52 577.12,-464.52"/>
</g>
<!-- source_research_paper -->
<g id="node27" class="node">
<title>source_research_paper</title>
<polygon fill="none" stroke="black" points="230.12,-526.27 129.12,-526.27 129.12,-490.27 230.12,-490.27 230.12,-526.27"/>
<text text-anchor="middle" x="179.62" y="-504.57" font-family="Times,serif" font-size="14.00">Research Paper</text>
</g>
<!-- source_research_paper&#45;&gt;recall_collect -->
<g id="edge21" class="edge">
<title>source_research_paper&#45;&gt;recall_collect</title>
<path fill="none" stroke="black" d="M177.55,-490.07C176.65,-482.61 175.56,-473.54 174.48,-464.55"/>
<polygon fill="black" stroke="black" points="177.94,-464.03 173.27,-454.52 170.99,-464.86 177.94,-464.03"/>
</g>
<!-- source_research_paper&#45;&gt;neoreader_collect -->
<g id="edge22" class="edge">
<title>source_research_paper&#45;&gt;neoreader_collect</title>
<path fill="none" stroke="black" d="M203.38,-490.27C217.6,-480.09 236.11,-466.84 252.81,-454.89"/>
<polygon fill="black" stroke="black" points="255.25,-457.45 261.34,-448.78 251.17,-451.75 255.25,-457.45"/>
</g>
<!-- source_document -->
<g id="node28" class="node">
<title>source_document</title>
<polygon fill="none" stroke="black" points="332.62,-526.27 258.62,-526.27 258.62,-490.27 332.62,-490.27 332.62,-526.27"/>
<text text-anchor="middle" x="295.62" y="-504.57" font-family="Times,serif" font-size="14.00">Document</text>
</g>
<!-- source_document&#45;&gt;neoreader_collect -->
<g id="edge28" class="edge">
<title>source_document&#45;&gt;neoreader_collect</title>
<path fill="none" stroke="black" d="M295.62,-490.07C295.62,-482.61 295.62,-473.54 295.62,-464.55"/>
<polygon fill="black" stroke="black" points="299.12,-464.52 295.62,-454.52 292.12,-464.52 299.12,-464.52"/>
</g>
<!-- source_youtube_video -->
<g id="node29" class="node">
<title>source_youtube_video</title>
<polygon fill="none" stroke="black" points="938.62,-526.27 836.62,-526.27 836.62,-490.27 938.62,-490.27 938.62,-526.27"/>
<text text-anchor="middle" x="887.62" y="-504.57" font-family="Times,serif" font-size="14.00">YouTube Video</text>
</g>
<!-- source_youtube_video&#45;&gt;youtube_collect -->
<g id="edge29" class="edge">
<title>source_youtube_video&#45;&gt;youtube_collect</title>
<path fill="none" stroke="black" d="M887.62,-490.07C887.62,-482.61 887.62,-473.54 887.62,-464.55"/>
<polygon fill="black" stroke="black" points="891.12,-464.52 887.62,-454.52 884.12,-464.52 891.12,-464.52"/>
</g>
</g>
</svg>
