<?xml version="1.0" encoding="UTF-8" standalone="no"?>
<!DOCTYPE svg PUBLIC "-//W3C//DTD SVG 1.1//EN"
 "http://www.w3.org/Graphics/SVG/1.1/DTD/svg11.dtd">
<!-- Generated by graphviz version 2.43.0 (0)
 -->
<!-- Title: %3 Pages: 1 -->
<svg width="250pt" height="534pt"
 viewBox="0.00 0.00 249.86 534.27" xmlns="http://www.w3.org/2000/svg" xmlns:xlink="http://www.w3.org/1999/xlink">
<g id="graph0" class="graph" transform="scale(1 1) rotate(0) translate(4 530.27)">
<title>%3</title>
<!-- recall_collect -->
<g id="node1" class="node">
<title>recall_collect</title>
<polygon fill="lightgreen" stroke="black" points="107.45,-423.24 82.08,-454.3 31.33,-454.3 5.96,-423.24 31.33,-392.19 82.08,-392.19 107.45,-423.24"/>
<text text-anchor="middle" x="56.71" y="-427.04" font-family="Times,serif" font-size="14.00">recall</text>
<text text-anchor="middle" x="56.71" y="-412.04" font-family="Times,serif" font-size="14.00">(collect)</text>
</g>
<!-- recall_retrieve -->
<g id="node3" class="node">
<title>recall_retrieve</title>
<polygon fill="lightgreen" stroke="black" points="109.62,-325.19 82.16,-356.24 27.25,-356.24 -0.21,-325.19 27.25,-294.13 82.16,-294.13 109.62,-325.19"/>
<text text-anchor="middle" x="54.71" y="-328.99" font-family="Times,serif" font-size="14.00">recall</text>
<text text-anchor="middle" x="54.71" y="-313.99" font-family="Times,serif" font-size="14.00">(retrieve)</text>
</g>
<!-- recall_collect&#45;&gt;recall_retrieve -->
<g id="edge3" class="edge">
<title>recall_collect&#45;&gt;recall_retrieve</title>
<path fill="none" stroke="black" d="M56.08,-392.11C55.91,-384.06 55.73,-375.21 55.55,-366.7"/>
<polygon fill="black" stroke="black" points="59.04,-366.46 55.34,-356.54 52.05,-366.61 59.04,-366.46"/>
</g>
<!-- neoreader_retrieve -->
<g id="node4" class="node">
<title>neoreader_retrieve</title>
<polygon fill="orange" stroke="black" points="242.02,-325.19 213.36,-356.24 156.05,-356.24 127.4,-325.19 156.05,-294.13 213.36,-294.13 242.02,-325.19"/>
<text text-anchor="middle" x="184.71" y="-328.99" font-family="Times,serif" font-size="14.00">neoreader</text>
<text text-anchor="middle" x="184.71" y="-313.99" font-family="Times,serif" font-size="14.00">(retrieve)</text>
</g>
<!-- recall_collect&#45;&gt;neoreader_retrieve -->
<g id="edge5" class="edge">
<title>recall_collect&#45;&gt;neoreader_retrieve</title>
<path fill="none" stroke="black" d="M87.69,-398.99C104.37,-386.47 125.18,-370.86 143.24,-357.31"/>
<polygon fill="black" stroke="black" points="145.42,-360.05 151.32,-351.24 141.22,-354.45 145.42,-360.05"/>
</g>
<!-- neoreader_collect -->
<g id="node2" class="node">
<title>neoreader_collect</title>
<polygon fill="lightblue" stroke="black" points="240.02,-423.24 211.36,-454.3 154.05,-454.3 125.4,-423.24 154.05,-392.19 211.36,-392.19 240.02,-423.24"/>
<text text-anchor="middle" x="182.71" y="-427.04" font-family="Times,serif" font-size="14.00">neoreader</text>
<text text-anchor="middle" x="182.71" y="-412.04" font-family="Times,serif" font-size="14.00">(collect)</text>
</g>
<!-- neoreader_collect&#45;&gt;recall_retrieve -->
<g id="edge4" class="edge">
<title>neoreader_collect&#45;&gt;recall_retrieve</title>
<path fill="none" stroke="black" d="M149.07,-397C132.65,-384.68 112.76,-369.75 95.47,-356.78"/>
<polygon fill="black" stroke="black" points="97.33,-353.8 87.23,-350.59 93.13,-359.4 97.33,-353.8"/>
</g>
<!-- neoreader_collect&#45;&gt;neoreader_retrieve -->
<g id="edge6" class="edge">
<title>neoreader_collect&#45;&gt;neoreader_retrieve</title>
<path fill="none" stroke="black" d="M183.33,-392.11C183.5,-384.06 183.68,-375.21 183.86,-366.7"/>
<polygon fill="black" stroke="black" points="187.36,-366.61 184.07,-356.54 180.37,-366.46 187.36,-366.61"/>
</g>
<!-- neoreader_consume -->
<g id="node5" class="node">
<title>neoreader_consume</title>
<polygon fill="lightgreen" stroke="black" points="180.05,-227.13 149.88,-258.19 89.53,-258.19 59.36,-227.13 89.53,-196.08 149.88,-196.08 180.05,-227.13"/>
<text text-anchor="middle" x="119.71" y="-230.93" font-family="Times,serif" font-size="14.00">neoreader</text>
<text text-anchor="middle" x="119.71" y="-215.93" font-family="Times,serif" font-size="14.00">(consume)</text>
</g>
<!-- recall_retrieve&#45;&gt;neoreader_consume -->
<g id="edge7" class="edge">
<title>recall_retrieve&#45;&gt;neoreader_consume</title>
<path fill="none" stroke="black" d="M75.09,-294.06C80.91,-285.47 87.32,-275.99 93.43,-266.96"/>
<polygon fill="black" stroke="black" points="96.46,-268.73 99.17,-258.49 90.66,-264.81 96.46,-268.73"/>
</g>
<!-- neoreader_retrieve&#45;&gt;neoreader_consume -->
<g id="edge8" class="edge">
<title>neoreader_retrieve&#45;&gt;neoreader_consume</title>
<path fill="none" stroke="black" d="M164.32,-294.06C158.51,-285.47 152.09,-275.99 145.98,-266.96"/>
<polygon fill="black" stroke="black" points="148.75,-264.81 140.24,-258.49 142.95,-268.73 148.75,-264.81"/>
</g>
<!-- readwise_extract -->
<g id="node6" class="node">
<title>readwise_extract</title>
<polygon fill="lightgreen" stroke="black" points="172.85,-129.08 146.28,-160.13 93.13,-160.13 66.56,-129.08 93.13,-98.03 146.28,-98.03 172.85,-129.08"/>
<text text-anchor="middle" x="119.71" y="-132.88" font-family="Times,serif" font-size="14.00">readwise</text>
<text text-anchor="middle" x="119.71" y="-117.88" font-family="Times,serif" font-size="14.00">(extract)</text>
</g>
<!-- neoreader_consume&#45;&gt;readwise_extract -->
<g id="edge9" class="edge">
<title>neoreader_consume&#45;&gt;readwise_extract</title>
<path fill="none" stroke="black" d="M119.71,-196.01C119.71,-187.95 119.71,-179.11 119.71,-170.59"/>
<polygon fill="black" stroke="black" points="123.21,-170.43 119.71,-160.43 116.21,-170.43 123.21,-170.43"/>
</g>
<!-- obsidian_refine -->
<g id="node7" class="node">
<title>obsidian_refine</title>
<polygon fill="lightgreen" stroke="black" points="113.45,-31.03 88.08,-62.08 37.33,-62.08 11.96,-31.03 37.33,0.03 88.08,0.03 113.45,-31.03"/>
<text text-anchor="middle" x="62.71" y="-34.83" font-family="Times,serif" font-size="14.00">obsidian</text>
<text text-anchor="middle" x="62.71" y="-19.83" font-family="Times,serif" font-size="14.00">(refine)</text>
</g>
<!-- readwise_extract&#45;&gt;obsidian_refine -->
<g id="edge10" class="edge">
<title>readwise_extract&#45;&gt;obsidian_refine</title>
<path fill="none" stroke="black" d="M101.83,-97.95C96.78,-89.45 91.22,-80.08 85.91,-71.13"/>
<polygon fill="black" stroke="black" points="88.83,-69.19 80.72,-62.38 82.81,-72.76 88.83,-69.19"/>
</g>
<!-- recall_refine -->
<g id="node8" class="node">
<title>recall_refine</title>
<polygon fill="lightgreen" stroke="black" points="224.29,-31.03 201,-62.08 154.41,-62.08 131.12,-31.03 154.41,0.03 201,0.03 224.29,-31.03"/>
<text text-anchor="middle" x="177.71" y="-34.83" font-family="Times,serif" font-size="14.00">recall</text>
<text text-anchor="middle" x="177.71" y="-19.83" font-family="Times,serif" font-size="14.00">(refine)</text>
</g>
<!-- readwise_extract&#45;&gt;recall_refine -->
<g id="edge11" class="edge">
<title>readwise_extract&#45;&gt;recall_refine</title>
<path fill="none" stroke="black" d="M137.9,-97.95C143.03,-89.45 148.69,-80.08 154.09,-71.13"/>
<polygon fill="black" stroke="black" points="157.21,-72.75 159.38,-62.38 151.21,-69.13 157.21,-72.75"/>
</g>
<!-- source_research_paper -->
<g id="node9" class="node">
<title>source_research_paper</title>
<polygon fill="none" stroke="black" points="170.21,-526.27 69.21,-526.27 69.21,-490.27 170.21,-490.27 170.21,-526.27"/>
<text text-anchor="middle" x="119.71" y="-504.57" font-family="Times,serif" font-size="14.00">Research Paper</text>
</g>
<!-- source_research_paper&#45;&gt;recall_collect -->
<g id="edge1" class="edge">
<title>source_research_paper&#45;&gt;recall_collect</title>
<path fill="none" stroke="black" d="M106.65,-490.07C100.57,-482.05 93.07,-472.17 85.75,-462.52"/>
<polygon fill="black" stroke="black" points="88.51,-460.37 79.68,-454.52 82.93,-464.6 88.51,-460.37"/>
</g>
<!-- source_research_paper&#45;&gt;neoreader_collect -->
<g id="edge2" class="edge">
<title>source_research_paper&#45;&gt;neoreader_collect</title>
<path fill="none" stroke="black" d="M132.76,-490.07C138.84,-482.05 146.34,-472.17 153.66,-462.52"/>
<polygon fill="black" stroke="black" points="156.48,-464.6 159.73,-454.52 150.9,-460.37 156.48,-464.6"/>
</g>
</g>
</svg>
