<?xml version="1.0" encoding="UTF-8" standalone="no"?>
<!DOCTYPE svg PUBLIC "-//W3C//DTD SVG 1.1//EN"
 "http://www.w3.org/Graphics/SVG/1.1/DTD/svg11.dtd">
<!-- Generated by graphviz version 2.43.0 (0)
 -->
<!-- Title: %3 Pages: 1 -->
<svg width="1143pt" height="534pt"
 viewBox="0.00 0.00 1142.91 534.27" xmlns="http://www.w3.org/2000/svg" xmlns:xlink="http://www.w3.org/1999/xlink">
<g id="graph0" class="graph" transform="scale(1 1) rotate(0) translate(4 530.27)">
<title>%3</title>
<polygon fill="white" stroke="transparent" points="-4,4 -4,-530.27 1138.91,-530.27 1138.91,4 -4,4"/>
<!-- reader_collect -->
<g id="node1" class="node">
<title>reader_collect</title>
<polygon fill="lightgreen" stroke="black" points="120.76,-423.24 90.59,-454.3 30.25,-454.3 0.08,-423.24 30.25,-392.19 90.59,-392.19 120.76,-423.24"/>
<text text-anchor="middle" x="60.42" y="-427.04" font-family="Times,serif" font-size="14.00">reader</text>
<text text-anchor="middle" x="60.42" y="-412.04" font-family="Times,serif" font-size="14.00">(collect)</text>
</g>
<!-- recall_retrieve -->
<g id="node7" class="node">
<title>recall_retrieve</title>
<polygon fill="lightgreen" stroke="black" points="260.09,-325.19 225.76,-356.24 157.08,-356.24 122.75,-325.19 157.08,-294.13 225.76,-294.13 260.09,-325.19"/>
<text text-anchor="middle" x="191.42" y="-328.99" font-family="Times,serif" font-size="14.00">recall</text>
<text text-anchor="middle" x="191.42" y="-313.99" font-family="Times,serif" font-size="14.00">(retrieve)</text>
</g>
<!-- reader_collect&#45;&gt;recall_retrieve -->
<g id="edge3" class="edge">
<title>reader_collect&#45;&gt;recall_retrieve</title>
<path fill="none" stroke="black" d="M95.18,-396.75C110.54,-385.49 128.82,-372.09 145.31,-360"/>
<polygon fill="black" stroke="black" points="147.74,-362.56 153.73,-353.82 143.6,-356.91 147.74,-362.56"/>
</g>
<!-- recall_collect -->
<g id="node2" class="node">
<title>recall_collect</title>
<polygon fill="lightgreen" stroke="black" points="259.76,-423.24 229.59,-454.3 169.25,-454.3 139.08,-423.24 169.25,-392.19 229.59,-392.19 259.76,-423.24"/>
<text text-anchor="middle" x="199.42" y="-427.04" font-family="Times,serif" font-size="14.00">recall</text>
<text text-anchor="middle" x="199.42" y="-412.04" font-family="Times,serif" font-size="14.00">(collect)</text>
</g>
<!-- recall_collect&#45;&gt;recall_retrieve -->
<g id="edge4" class="edge">
<title>recall_collect&#45;&gt;recall_retrieve</title>
<path fill="none" stroke="black" d="M196.91,-392.11C196.24,-384.06 195.5,-375.21 194.79,-366.7"/>
<polygon fill="black" stroke="black" points="198.27,-366.21 193.95,-356.54 191.29,-366.8 198.27,-366.21"/>
</g>
<!-- neoreader_retrieve -->
<g id="node11" class="node">
<title>neoreader_retrieve</title>
<polygon fill="orange" stroke="black" points="423.26,-325.19 386.84,-356.24 314,-356.24 277.58,-325.19 314,-294.13 386.84,-294.13 423.26,-325.19"/>
<text text-anchor="middle" x="350.42" y="-328.99" font-family="Times,serif" font-size="14.00">neoreader</text>
<text text-anchor="middle" x="350.42" y="-313.99" font-family="Times,serif" font-size="14.00">(retrieve)</text>
</g>
<!-- recall_collect&#45;&gt;neoreader_retrieve -->
<g id="edge24" class="edge">
<title>recall_collect&#45;&gt;neoreader_retrieve</title>
<path fill="none" stroke="black" d="M236.36,-398.74C255.77,-386.39 279.84,-371.09 300.85,-357.72"/>
<polygon fill="black" stroke="black" points="302.79,-360.64 309.35,-352.32 299.03,-354.73 302.79,-360.64"/>
</g>
<!-- librarything_collect -->
<g id="node3" class="node">
<title>librarything_collect</title>
<polygon fill="lightblue" stroke="black" points="607.49,-423.24 565.95,-454.3 482.89,-454.3 441.35,-423.24 482.89,-392.19 565.95,-392.19 607.49,-423.24"/>
<text text-anchor="middle" x="524.42" y="-427.04" font-family="Times,serif" font-size="14.00">librarything</text>
<text text-anchor="middle" x="524.42" y="-412.04" font-family="Times,serif" font-size="14.00">(collect)</text>
</g>
<!-- librarything_retrieve -->
<g id="node9" class="node">
<title>librarything_retrieve</title>
<polygon fill="orange" stroke="black" points="607.49,-325.19 565.95,-356.24 482.89,-356.24 441.35,-325.19 482.89,-294.13 565.95,-294.13 607.49,-325.19"/>
<text text-anchor="middle" x="524.42" y="-328.99" font-family="Times,serif" font-size="14.00">librarything</text>
<text text-anchor="middle" x="524.42" y="-313.99" font-family="Times,serif" font-size="14.00">(retrieve)</text>
</g>
<!-- librarything_collect&#45;&gt;librarything_retrieve -->
<g id="edge14" class="edge">
<title>librarything_collect&#45;&gt;librarything_retrieve</title>
<path fill="none" stroke="black" d="M524.42,-392.11C524.42,-384.06 524.42,-375.21 524.42,-366.7"/>
<polygon fill="black" stroke="black" points="527.92,-366.54 524.42,-356.54 520.92,-366.54 527.92,-366.54"/>
</g>
<!-- snipd_collect -->
<g id="node4" class="node">
<title>snipd_collect</title>
<polygon fill="lightblue" stroke="black" points="754.76,-423.24 724.59,-454.3 664.25,-454.3 634.08,-423.24 664.25,-392.19 724.59,-392.19 754.76,-423.24"/>
<text text-anchor="middle" x="694.42" y="-427.04" font-family="Times,serif" font-size="14.00">snipd</text>
<text text-anchor="middle" x="694.42" y="-412.04" font-family="Times,serif" font-size="14.00">(collect)</text>
</g>
<!-- snipd_retrieve -->
<g id="node10" class="node">
<title>snipd_retrieve</title>
<polygon fill="orange" stroke="black" points="763.09,-325.19 728.76,-356.24 660.08,-356.24 625.75,-325.19 660.08,-294.13 728.76,-294.13 763.09,-325.19"/>
<text text-anchor="middle" x="694.42" y="-328.99" font-family="Times,serif" font-size="14.00">snipd</text>
<text text-anchor="middle" x="694.42" y="-313.99" font-family="Times,serif" font-size="14.00">(retrieve)</text>
</g>
<!-- snipd_collect&#45;&gt;snipd_retrieve -->
<g id="edge18" class="edge">
<title>snipd_collect&#45;&gt;snipd_retrieve</title>
<path fill="none" stroke="black" d="M694.42,-392.11C694.42,-384.06 694.42,-375.21 694.42,-366.7"/>
<polygon fill="black" stroke="black" points="697.92,-366.54 694.42,-356.54 690.92,-366.54 697.92,-366.54"/>
</g>
<!-- neoreader_collect -->
<g id="node5" class="node">
<title>neoreader_collect</title>
<polygon fill="lightblue" stroke="black" points="423.26,-423.24 386.84,-454.3 314,-454.3 277.58,-423.24 314,-392.19 386.84,-392.19 423.26,-423.24"/>
<text text-anchor="middle" x="350.42" y="-427.04" font-family="Times,serif" font-size="14.00">neoreader</text>
<text text-anchor="middle" x="350.42" y="-412.04" font-family="Times,serif" font-size="14.00">(collect)</text>
</g>
<!-- neoreader_collect&#45;&gt;recall_retrieve -->
<g id="edge23" class="edge">
<title>neoreader_collect&#45;&gt;recall_retrieve</title>
<path fill="none" stroke="black" d="M308.23,-396.75C287.53,-384.25 262.46,-369.11 240.87,-356.06"/>
<polygon fill="black" stroke="black" points="242.53,-352.97 232.16,-350.8 238.91,-358.97 242.53,-352.97"/>
</g>
<!-- neoreader_collect&#45;&gt;neoreader_retrieve -->
<g id="edge25" class="edge">
<title>neoreader_collect&#45;&gt;neoreader_retrieve</title>
<path fill="none" stroke="black" d="M350.42,-392.11C350.42,-384.06 350.42,-375.21 350.42,-366.7"/>
<polygon fill="black" stroke="black" points="353.92,-366.54 350.42,-356.54 346.92,-366.54 353.92,-366.54"/>
</g>
<!-- youtube_collect -->
<g id="node6" class="node">
<title>youtube_collect</title>
<polygon fill="lightblue" stroke="black" points="1121.76,-423.24 1091.59,-454.3 1031.25,-454.3 1001.08,-423.24 1031.25,-392.19 1091.59,-392.19 1121.76,-423.24"/>
<text text-anchor="middle" x="1061.42" y="-427.04" font-family="Times,serif" font-size="14.00">youtube</text>
<text text-anchor="middle" x="1061.42" y="-412.04" font-family="Times,serif" font-size="14.00">(collect)</text>
</g>
<!-- youtube_retrieve -->
<g id="node12" class="node">
<title>youtube_retrieve</title>
<polygon fill="orange" stroke="black" points="1130.09,-325.19 1095.76,-356.24 1027.08,-356.24 992.75,-325.19 1027.08,-294.13 1095.76,-294.13 1130.09,-325.19"/>
<text text-anchor="middle" x="1061.42" y="-328.99" font-family="Times,serif" font-size="14.00">youtube</text>
<text text-anchor="middle" x="1061.42" y="-313.99" font-family="Times,serif" font-size="14.00">(retrieve)</text>
</g>
<!-- youtube_collect&#45;&gt;youtube_retrieve -->
<g id="edge30" class="edge">
<title>youtube_collect&#45;&gt;youtube_retrieve</title>
<path fill="none" stroke="black" d="M1061.42,-392.11C1061.42,-384.06 1061.42,-375.21 1061.42,-366.7"/>
<polygon fill="black" stroke="black" points="1064.92,-366.54 1061.42,-356.54 1057.92,-366.54 1064.92,-366.54"/>
</g>
<!-- reader_consume -->
<g id="node13" class="node">
<title>reader_consume</title>
<polygon fill="lightgreen" stroke="black" points="264.89,-227.13 228.16,-258.19 154.69,-258.19 117.95,-227.13 154.69,-196.08 228.16,-196.08 264.89,-227.13"/>
<text text-anchor="middle" x="191.42" y="-230.93" font-family="Times,serif" font-size="14.00">reader</text>
<text text-anchor="middle" x="191.42" y="-215.93" font-family="Times,serif" font-size="14.00">(consume)</text>
</g>
<!-- recall_retrieve&#45;&gt;reader_consume -->
<g id="edge5" class="edge">
<title>recall_retrieve&#45;&gt;reader_consume</title>
<path fill="none" stroke="black" d="M191.42,-294.06C191.42,-286 191.42,-277.16 191.42,-268.64"/>
<polygon fill="black" stroke="black" points="194.92,-268.49 191.42,-258.49 187.92,-268.49 194.92,-268.49"/>
</g>
<!-- neoreader_consume -->
<g id="node15" class="node">
<title>neoreader_consume</title>
<polygon fill="lightgreen" stroke="black" points="513.89,-227.13 477.16,-258.19 403.69,-258.19 366.95,-227.13 403.69,-196.08 477.16,-196.08 513.89,-227.13"/>
<text text-anchor="middle" x="440.42" y="-230.93" font-family="Times,serif" font-size="14.00">neoreader</text>
<text text-anchor="middle" x="440.42" y="-215.93" font-family="Times,serif" font-size="14.00">(consume)</text>
</g>
<!-- recall_retrieve&#45;&gt;neoreader_consume -->
<g id="edge26" class="edge">
<title>recall_retrieve&#45;&gt;neoreader_consume</title>
<path fill="none" stroke="black" d="M238.64,-305.73C248.48,-301.9 258.79,-297.89 268.42,-294.16 305.75,-279.72 347.69,-263.62 380.81,-250.93"/>
<polygon fill="black" stroke="black" points="382.26,-254.12 390.34,-247.28 379.75,-247.59 382.26,-254.12"/>
</g>
<!-- obsidian_retrieve -->
<g id="node8" class="node">
<title>obsidian_retrieve</title>
<polygon fill="lightblue" stroke="black" points="965.09,-325.19 930.76,-356.24 862.08,-356.24 827.75,-325.19 862.08,-294.13 930.76,-294.13 965.09,-325.19"/>
<text text-anchor="middle" x="896.42" y="-328.99" font-family="Times,serif" font-size="14.00">obsidian</text>
<text text-anchor="middle" x="896.42" y="-313.99" font-family="Times,serif" font-size="14.00">(retrieve)</text>
</g>
<!-- obsidian_consume -->
<g id="node14" class="node">
<title>obsidian_consume</title>
<polygon fill="lightblue" stroke="black" points="969.89,-227.13 933.16,-258.19 859.69,-258.19 822.95,-227.13 859.69,-196.08 933.16,-196.08 969.89,-227.13"/>
<text text-anchor="middle" x="896.42" y="-230.93" font-family="Times,serif" font-size="14.00">obsidian</text>
<text text-anchor="middle" x="896.42" y="-215.93" font-family="Times,serif" font-size="14.00">(consume)</text>
</g>
<!-- obsidian_retrieve&#45;&gt;obsidian_consume -->
<g id="edge10" class="edge">
<title>obsidian_retrieve&#45;&gt;obsidian_consume</title>
<path fill="none" stroke="black" d="M896.42,-294.06C896.42,-286 896.42,-277.16 896.42,-268.64"/>
<polygon fill="black" stroke="black" points="899.92,-268.49 896.42,-258.49 892.92,-268.49 899.92,-268.49"/>
</g>
<!-- librarything_retrieve&#45;&gt;neoreader_consume -->
<g id="edge15" class="edge">
<title>librarything_retrieve&#45;&gt;neoreader_consume</title>
<path fill="none" stroke="black" d="M498.07,-294.06C490.33,-285.21 481.76,-275.4 473.64,-266.12"/>
<polygon fill="black" stroke="black" points="476.18,-263.71 466.96,-258.49 470.91,-268.32 476.18,-263.71"/>
</g>
<!-- snipd_consume -->
<g id="node16" class="node">
<title>snipd_consume</title>
<polygon fill="lightgreen" stroke="black" points="767.89,-227.13 731.16,-258.19 657.69,-258.19 620.95,-227.13 657.69,-196.08 731.16,-196.08 767.89,-227.13"/>
<text text-anchor="middle" x="694.42" y="-230.93" font-family="Times,serif" font-size="14.00">snipd</text>
<text text-anchor="middle" x="694.42" y="-215.93" font-family="Times,serif" font-size="14.00">(consume)</text>
</g>
<!-- snipd_retrieve&#45;&gt;snipd_consume -->
<g id="edge19" class="edge">
<title>snipd_retrieve&#45;&gt;snipd_consume</title>
<path fill="none" stroke="black" d="M694.42,-294.06C694.42,-286 694.42,-277.16 694.42,-268.64"/>
<polygon fill="black" stroke="black" points="697.92,-268.49 694.42,-258.49 690.92,-268.49 697.92,-268.49"/>
</g>
<!-- neoreader_retrieve&#45;&gt;neoreader_consume -->
<g id="edge27" class="edge">
<title>neoreader_retrieve&#45;&gt;neoreader_consume</title>
<path fill="none" stroke="black" d="M378.65,-294.06C387.03,-285.12 396.31,-275.21 405.09,-265.85"/>
<polygon fill="black" stroke="black" points="407.7,-268.18 411.98,-258.49 402.59,-263.39 407.7,-268.18"/>
</g>
<!-- youtube_consume -->
<g id="node17" class="node">
<title>youtube_consume</title>
<polygon fill="lightblue" stroke="black" points="1134.89,-227.13 1098.16,-258.19 1024.69,-258.19 987.95,-227.13 1024.69,-196.08 1098.16,-196.08 1134.89,-227.13"/>
<text text-anchor="middle" x="1061.42" y="-230.93" font-family="Times,serif" font-size="14.00">youtube</text>
<text text-anchor="middle" x="1061.42" y="-215.93" font-family="Times,serif" font-size="14.00">(consume)</text>
</g>
<!-- youtube_retrieve&#45;&gt;youtube_consume -->
<g id="edge31" class="edge">
<title>youtube_retrieve&#45;&gt;youtube_consume</title>
<path fill="none" stroke="black" d="M1061.42,-294.06C1061.42,-286 1061.42,-277.16 1061.42,-268.64"/>
<polygon fill="black" stroke="black" points="1064.92,-268.49 1061.42,-258.49 1057.92,-268.49 1064.92,-268.49"/>
</g>
<!-- obsidian_extract -->
<g id="node19" class="node">
<title>obsidian_extract</title>
<polygon fill="lightgreen" stroke="black" points="960.29,-129.08 928.36,-160.13 864.48,-160.13 832.55,-129.08 864.48,-98.03 928.36,-98.03 960.29,-129.08"/>
<text text-anchor="middle" x="896.42" y="-132.88" font-family="Times,serif" font-size="14.00">obsidian</text>
<text text-anchor="middle" x="896.42" y="-117.88" font-family="Times,serif" font-size="14.00">(extract)</text>
</g>
<!-- obsidian_consume&#45;&gt;obsidian_extract -->
<g id="edge11" class="edge">
<title>obsidian_consume&#45;&gt;obsidian_extract</title>
<path fill="none" stroke="black" d="M896.42,-196.01C896.42,-187.95 896.42,-179.11 896.42,-170.59"/>
<polygon fill="black" stroke="black" points="899.92,-170.43 896.42,-160.43 892.92,-170.43 899.92,-170.43"/>
</g>
<!-- readwise_extract -->
<g id="node18" class="node">
<title>readwise_extract</title>
<polygon fill="lightgreen" stroke="black" points="787.69,-129.08 754.56,-160.13 688.28,-160.13 655.15,-129.08 688.28,-98.03 754.56,-98.03 787.69,-129.08"/>
<text text-anchor="middle" x="721.42" y="-132.88" font-family="Times,serif" font-size="14.00">readwise</text>
<text text-anchor="middle" x="721.42" y="-117.88" font-family="Times,serif" font-size="14.00">(extract)</text>
</g>
<!-- neoreader_consume&#45;&gt;readwise_extract -->
<g id="edge16" class="edge">
<title>neoreader_consume&#45;&gt;readwise_extract</title>
<path fill="none" stroke="black" d="M491.96,-208.52C540.63,-191.88 613.51,-166.97 664.01,-149.7"/>
<polygon fill="black" stroke="black" points="665.16,-153.01 673.49,-146.46 662.89,-146.39 665.16,-153.01"/>
</g>
<!-- snipd_consume&#45;&gt;readwise_extract -->
<g id="edge20" class="edge">
<title>snipd_consume&#45;&gt;readwise_extract</title>
<path fill="none" stroke="black" d="M702.89,-196.01C705.18,-187.86 707.69,-178.91 710.11,-170.31"/>
<polygon fill="black" stroke="black" points="713.55,-171.01 712.89,-160.43 706.81,-169.11 713.55,-171.01"/>
</g>
<!-- youtube_consume&#45;&gt;obsidian_extract -->
<g id="edge32" class="edge">
<title>youtube_consume&#45;&gt;obsidian_extract</title>
<path fill="none" stroke="black" d="M1018.5,-201.15C995.81,-187.94 967.88,-171.68 944.47,-158.05"/>
<polygon fill="black" stroke="black" points="946.14,-154.97 935.74,-152.97 942.62,-161.02 946.14,-154.97"/>
</g>
<!-- recall_refine -->
<g id="node20" class="node">
<title>recall_refine</title>
<polygon fill="lightgreen" stroke="black" points="776.96,-31.03 749.19,-62.08 693.65,-62.08 665.88,-31.03 693.65,0.03 749.19,0.03 776.96,-31.03"/>
<text text-anchor="middle" x="721.42" y="-34.83" font-family="Times,serif" font-size="14.00">recall</text>
<text text-anchor="middle" x="721.42" y="-19.83" font-family="Times,serif" font-size="14.00">(refine)</text>
</g>
<!-- readwise_extract&#45;&gt;recall_refine -->
<g id="edge7" class="edge">
<title>readwise_extract&#45;&gt;recall_refine</title>
<path fill="none" stroke="black" d="M721.42,-97.95C721.42,-89.89 721.42,-81.05 721.42,-72.53"/>
<polygon fill="black" stroke="black" points="724.92,-72.38 721.42,-62.38 717.92,-72.38 724.92,-72.38"/>
</g>
<!-- obsidian_refine -->
<g id="node21" class="node">
<title>obsidian_refine</title>
<polygon fill="lightgreen" stroke="black" points="926.16,-31.03 894.79,-62.08 832.05,-62.08 800.68,-31.03 832.05,0.03 894.79,0.03 926.16,-31.03"/>
<text text-anchor="middle" x="863.42" y="-34.83" font-family="Times,serif" font-size="14.00">obsidian</text>
<text text-anchor="middle" x="863.42" y="-19.83" font-family="Times,serif" font-size="14.00">(refine)</text>
</g>
<!-- readwise_extract&#45;&gt;obsidian_refine -->
<g id="edge8" class="edge">
<title>readwise_extract&#45;&gt;obsidian_refine</title>
<path fill="none" stroke="black" d="M759.47,-102.34C777.57,-90.1 799.33,-75.38 818.26,-62.57"/>
<polygon fill="black" stroke="black" points="820.41,-65.35 826.73,-56.84 816.49,-59.55 820.41,-65.35"/>
</g>
<!-- obsidian_extract&#45;&gt;obsidian_refine -->
<g id="edge12" class="edge">
<title>obsidian_extract&#45;&gt;obsidian_refine</title>
<path fill="none" stroke="black" d="M886.07,-97.95C883.24,-89.72 880.13,-80.66 877.14,-71.97"/>
<polygon fill="black" stroke="black" points="880.41,-70.7 873.85,-62.38 873.79,-72.97 880.41,-70.7"/>
</g>
<!-- source_web_article -->
<g id="node22" class="node">
<title>source_web_article</title>
<polygon fill="none" stroke="black" points="125.92,-526.27 26.92,-526.27 26.92,-490.27 125.92,-490.27 125.92,-526.27"/>
<text text-anchor="middle" x="76.42" y="-504.57" font-family="Times,serif" font-size="14.00">Web Article</text>
</g>
<!-- source_web_article&#45;&gt;reader_collect -->
<g id="edge1" class="edge">
<title>source_web_article&#45;&gt;reader_collect</title>
<path fill="none" stroke="black" d="M73.11,-490.07C71.67,-482.61 69.92,-473.54 68.19,-464.55"/>
<polygon fill="black" stroke="black" points="71.58,-463.67 66.26,-454.52 64.71,-465 71.58,-463.67"/>
</g>
<!-- source_web_article&#45;&gt;recall_collect -->
<g id="edge2" class="edge">
<title>source_web_article&#45;&gt;recall_collect</title>
<path fill="none" stroke="black" d="M101.61,-490.27C116.95,-479.91 136.99,-466.38 154.93,-454.27"/>
<polygon fill="black" stroke="black" points="157.21,-456.96 163.54,-448.46 153.29,-451.16 157.21,-456.96"/>
</g>
<!-- source_annotations&amp;highlights -->
<g id="node23" class="node">
<title>source_annotations&amp;highlights</title>
<polygon fill="none" stroke="black" points="842.92,-526.27 747.92,-526.27 747.92,-490.27 842.92,-490.27 842.92,-526.27"/>
<text text-anchor="middle" x="795.42" y="-504.57" font-family="Times,serif" font-size="14.00">Annotation</text>
</g>
<!-- source_annotations&amp;highlights&#45;&gt;readwise_extract -->
<g id="edge6" class="edge">
<title>source_annotations&amp;highlights&#45;&gt;readwise_extract</title>
<path fill="none" stroke="black" d="M798,-489.94C804.47,-441.43 818.04,-300.99 776.42,-196.11 772.5,-186.23 766.5,-176.74 759.89,-168.18"/>
<polygon fill="black" stroke="black" points="762.46,-165.79 753.41,-160.28 757.04,-170.23 762.46,-165.79"/>
</g>
<!-- source_note -->
<g id="node24" class="node">
<title>source_note</title>
<polygon fill="none" stroke="black" points="923.42,-526.27 869.42,-526.27 869.42,-490.27 923.42,-490.27 923.42,-526.27"/>
<text text-anchor="middle" x="896.42" y="-504.57" font-family="Times,serif" font-size="14.00">Note</text>
</g>
<!-- source_note&#45;&gt;obsidian_retrieve -->
<g id="edge9" class="edge">
<title>source_note&#45;&gt;obsidian_retrieve</title>
<path fill="none" stroke="black" d="M896.42,-490.23C896.42,-462.23 896.42,-405.7 896.42,-366.9"/>
<polygon fill="black" stroke="black" points="899.92,-366.47 896.42,-356.47 892.92,-366.47 899.92,-366.47"/>
</g>
<!-- source_book -->
<g id="node25" class="node">
<title>source_book</title>
<polygon fill="none" stroke="black" points="551.42,-526.27 497.42,-526.27 497.42,-490.27 551.42,-490.27 551.42,-526.27"/>
<text text-anchor="middle" x="524.42" y="-504.57" font-family="Times,serif" font-size="14.00">Book</text>
</g>
<!-- source_book&#45;&gt;librarything_collect -->
<g id="edge13" class="edge">
<title>source_book&#45;&gt;librarything_collect</title>
<path fill="none" stroke="black" d="M524.42,-490.07C524.42,-482.61 524.42,-473.54 524.42,-464.55"/>
<polygon fill="black" stroke="black" points="527.92,-464.52 524.42,-454.52 520.92,-464.52 527.92,-464.52"/>
</g>
<!-- source_podcast -->
<g id="node26" class="node">
<title>source_podcast</title>
<polygon fill="none" stroke="black" points="729.42,-526.27 657.42,-526.27 657.42,-490.27 729.42,-490.27 729.42,-526.27"/>
<text text-anchor="middle" x="693.42" y="-504.57" font-family="Times,serif" font-size="14.00">Podcast</text>
</g>
<!-- source_podcast&#45;&gt;snipd_collect -->
<g id="edge17" class="edge">
<title>source_podcast&#45;&gt;snipd_collect</title>
<path fill="none" stroke="black" d="M693.63,-490.07C693.72,-482.61 693.83,-473.54 693.94,-464.55"/>
<polygon fill="black" stroke="black" points="697.44,-464.56 694.06,-454.52 690.44,-464.47 697.44,-464.56"/>
</g>
<!-- source_research_paper -->
<g id="node27" class="node">
<title>source_research_paper</title>
<polygon fill="none" stroke="black" points="275.42,-526.27 147.42,-526.27 147.42,-490.27 275.42,-490.27 275.42,-526.27"/>
<text text-anchor="middle" x="211.42" y="-504.57" font-family="Times,serif" font-size="14.00">Research Paper</text>
</g>
<!-- source_research_paper&#45;&gt;recall_collect -->
<g id="edge21" class="edge">
<title>source_research_paper&#45;&gt;recall_collect</title>
<path fill="none" stroke="black" d="M208.93,-490.07C207.86,-482.61 206.55,-473.54 205.25,-464.55"/>
<polygon fill="black" stroke="black" points="208.69,-463.91 203.8,-454.52 201.76,-464.92 208.69,-463.91"/>
</g>
<!-- source_research_paper&#45;&gt;neoreader_collect -->
<g id="edge22" class="edge">
<title>source_research_paper&#45;&gt;neoreader_collect</title>
<path fill="none" stroke="black" d="M239.88,-490.27C257.04,-480.02 279.4,-466.66 299.52,-454.65"/>
<polygon fill="black" stroke="black" points="301.48,-457.55 308.27,-449.42 297.89,-451.54 301.48,-457.55"/>
</g>
<!-- source_document -->
<g id="node28" class="node">
<title>source_document</title>
<polygon fill="none" stroke="black" points="394.92,-526.27 305.92,-526.27 305.92,-490.27 394.92,-490.27 394.92,-526.27"/>
<text text-anchor="middle" x="350.42" y="-504.57" font-family="Times,serif" font-size="14.00">Document</text>
</g>
<!-- source_document&#45;&gt;neoreader_collect -->
<g id="edge28" class="edge">
<title>source_document&#45;&gt;neoreader_collect</title>
<path fill="none" stroke="black" d="M350.42,-490.07C350.42,-482.61 350.42,-473.54 350.42,-464.55"/>
<polygon fill="black" stroke="black" points="353.92,-464.52 350.42,-454.52 346.92,-464.52 353.92,-464.52"/>
</g>
<!-- source_youtube_video -->
<g id="node29" class="node">
<title>source_youtube_video</title>
<polygon fill="none" stroke="black" points="1122.42,-526.27 1000.42,-526.27 1000.42,-490.27 1122.42,-490.27 1122.42,-526.27"/>
<text text-anchor="middle" x="1061.42" y="-504.57" font-family="Times,serif" font-size="14.00">YouTube Video</text>
</g>
<!-- source_youtube_video&#45;&gt;youtube_collect -->
<g id="edge29" class="edge">
<title>source_youtube_video&#45;&gt;youtube_collect</title>
<path fill="none" stroke="black" d="M1061.42,-490.07C1061.42,-482.61 1061.42,-473.54 1061.42,-464.55"/>
<polygon fill="black" stroke="black" points="1064.92,-464.52 1061.42,-454.52 1057.92,-464.52 1064.92,-464.52"/>
</g>
</g>
</svg>
