<?xml version="1.0" encoding="UTF-8" standalone="no"?>
<!DOCTYPE svg PUBLIC "-//W3C//DTD SVG 1.1//EN"
 "http://www.w3.org/Graphics/SVG/1.1/DTD/svg11.dtd">
<!-- Generated by graphviz version 2.43.0 (0)
 -->
<!-- Title: %3 Pages: 1 -->
<svg width="398pt" height="534pt"
 viewBox="0.00 0.00 398.02 534.27" xmlns="http://www.w3.org/2000/svg" xmlns:xlink="http://www.w3.org/1999/xlink">
<g id="graph0" class="graph" transform="scale(1 1) rotate(0) translate(4 530.27)">
<title>%3</title>
<!-- librarything_collect -->
<g id="node1" class="node">
<title>librarything_collect</title>
<polygon fill="lightblue" stroke="black" points="130.46,-423.24 97.89,-454.3 32.75,-454.3 0.18,-423.24 32.75,-392.19 97.89,-392.19 130.46,-423.24"/>
<text text-anchor="middle" x="65.32" y="-427.04" font-family="Times,serif" font-size="14.00">librarything</text>
<text text-anchor="middle" x="65.32" y="-412.04" font-family="Times,serif" font-size="14.00">(collect)</text>
</g>
<!-- librarything_retrieve -->
<g id="node4" class="node">
<title>librarything_retrieve</title>
<polygon fill="orange" stroke="black" points="130.46,-325.19 97.89,-356.24 32.75,-356.24 0.18,-325.19 32.75,-294.13 97.89,-294.13 130.46,-325.19"/>
<text text-anchor="middle" x="65.32" y="-328.99" font-family="Times,serif" font-size="14.00">librarything</text>
<text text-anchor="middle" x="65.32" y="-313.99" font-family="Times,serif" font-size="14.00">(retrieve)</text>
</g>
<!-- librarything_collect&#45;&gt;librarything_retrieve -->
<g id="edge2" class="edge">
<title>librarything_collect&#45;&gt;librarything_retrieve</title>
<path fill="none" stroke="black" d="M65.32,-392.11C65.32,-384.06 65.32,-375.21 65.32,-366.7"/>
<polygon fill="black" stroke="black" points="68.82,-366.54 65.32,-356.54 61.82,-366.54 68.82,-366.54"/>
</g>
<!-- recall_collect -->
<g id="node2" class="node">
<title>recall_collect</title>
<polygon fill="lightgreen" stroke="black" points="384.07,-423.24 358.69,-454.3 307.95,-454.3 282.57,-423.24 307.95,-392.19 358.69,-392.19 384.07,-423.24"/>
<text text-anchor="middle" x="333.32" y="-427.04" font-family="Times,serif" font-size="14.00">recall</text>
<text text-anchor="middle" x="333.32" y="-412.04" font-family="Times,serif" font-size="14.00">(collect)</text>
</g>
<!-- recall_retrieve -->
<g id="node5" class="node">
<title>recall_retrieve</title>
<polygon fill="lightgreen" stroke="black" points="390.23,-325.19 362.78,-356.24 307.86,-356.24 280.41,-325.19 307.86,-294.13 362.78,-294.13 390.23,-325.19"/>
<text text-anchor="middle" x="335.32" y="-328.99" font-family="Times,serif" font-size="14.00">recall</text>
<text text-anchor="middle" x="335.32" y="-313.99" font-family="Times,serif" font-size="14.00">(retrieve)</text>
</g>
<!-- recall_collect&#45;&gt;recall_retrieve -->
<g id="edge8" class="edge">
<title>recall_collect&#45;&gt;recall_retrieve</title>
<path fill="none" stroke="black" d="M333.95,-392.11C334.11,-384.06 334.3,-375.21 334.48,-366.7"/>
<polygon fill="black" stroke="black" points="337.98,-366.61 334.69,-356.54 330.98,-366.46 337.98,-366.61"/>
</g>
<!-- neoreader_retrieve -->
<g id="node6" class="node">
<title>neoreader_retrieve</title>
<polygon fill="orange" stroke="black" points="262.63,-325.19 233.97,-356.24 176.66,-356.24 148.01,-325.19 176.66,-294.13 233.97,-294.13 262.63,-325.19"/>
<text text-anchor="middle" x="205.32" y="-328.99" font-family="Times,serif" font-size="14.00">neoreader</text>
<text text-anchor="middle" x="205.32" y="-313.99" font-family="Times,serif" font-size="14.00">(retrieve)</text>
</g>
<!-- recall_collect&#45;&gt;neoreader_retrieve -->
<g id="edge10" class="edge">
<title>recall_collect&#45;&gt;neoreader_retrieve</title>
<path fill="none" stroke="black" d="M302.33,-398.99C285.65,-386.47 264.85,-370.86 246.79,-357.31"/>
<polygon fill="black" stroke="black" points="248.81,-354.45 238.71,-351.24 244.61,-360.05 248.81,-354.45"/>
</g>
<!-- neoreader_collect -->
<g id="node3" class="node">
<title>neoreader_collect</title>
<polygon fill="lightblue" stroke="black" points="264.63,-423.24 235.97,-454.3 178.66,-454.3 150.01,-423.24 178.66,-392.19 235.97,-392.19 264.63,-423.24"/>
<text text-anchor="middle" x="207.32" y="-427.04" font-family="Times,serif" font-size="14.00">neoreader</text>
<text text-anchor="middle" x="207.32" y="-412.04" font-family="Times,serif" font-size="14.00">(collect)</text>
</g>
<!-- neoreader_collect&#45;&gt;recall_retrieve -->
<g id="edge9" class="edge">
<title>neoreader_collect&#45;&gt;recall_retrieve</title>
<path fill="none" stroke="black" d="M240.95,-397C257.37,-384.68 277.27,-369.75 294.55,-356.78"/>
<polygon fill="black" stroke="black" points="296.9,-359.4 302.8,-350.59 292.7,-353.8 296.9,-359.4"/>
</g>
<!-- neoreader_collect&#45;&gt;neoreader_retrieve -->
<g id="edge11" class="edge">
<title>neoreader_collect&#45;&gt;neoreader_retrieve</title>
<path fill="none" stroke="black" d="M206.69,-392.11C206.52,-384.06 206.34,-375.21 206.16,-366.7"/>
<polygon fill="black" stroke="black" points="209.66,-366.46 205.95,-356.54 202.66,-366.61 209.66,-366.46"/>
</g>
<!-- neoreader_consume -->
<g id="node7" class="node">
<title>neoreader_consume</title>
<polygon fill="lightgreen" stroke="black" points="265.66,-227.13 235.49,-258.19 175.15,-258.19 144.98,-227.13 175.15,-196.08 235.49,-196.08 265.66,-227.13"/>
<text text-anchor="middle" x="205.32" y="-230.93" font-family="Times,serif" font-size="14.00">neoreader</text>
<text text-anchor="middle" x="205.32" y="-215.93" font-family="Times,serif" font-size="14.00">(consume)</text>
</g>
<!-- librarything_retrieve&#45;&gt;neoreader_consume -->
<g id="edge3" class="edge">
<title>librarything_retrieve&#45;&gt;neoreader_consume</title>
<path fill="none" stroke="black" d="M102.84,-298.45C120.82,-286.11 142.47,-271.25 161.24,-258.38"/>
<polygon fill="black" stroke="black" points="163.36,-261.16 169.63,-252.62 159.4,-255.39 163.36,-261.16"/>
</g>
<!-- recall_retrieve&#45;&gt;neoreader_consume -->
<g id="edge12" class="edge">
<title>recall_retrieve&#45;&gt;neoreader_consume</title>
<path fill="none" stroke="black" d="M302.52,-299.95C286.1,-287.82 266.01,-272.98 248.37,-259.94"/>
<polygon fill="black" stroke="black" points="250.06,-256.84 239.93,-253.71 245.9,-262.47 250.06,-256.84"/>
</g>
<!-- neoreader_retrieve&#45;&gt;neoreader_consume -->
<g id="edge13" class="edge">
<title>neoreader_retrieve&#45;&gt;neoreader_consume</title>
<path fill="none" stroke="black" d="M205.32,-294.06C205.32,-286 205.32,-277.16 205.32,-268.64"/>
<polygon fill="black" stroke="black" points="208.82,-268.49 205.32,-258.49 201.82,-268.49 208.82,-268.49"/>
</g>
<!-- readwise_extract -->
<g id="node8" class="node">
<title>readwise_extract</title>
<polygon fill="lightgreen" stroke="black" points="258.46,-129.08 231.89,-160.13 178.75,-160.13 152.18,-129.08 178.75,-98.03 231.89,-98.03 258.46,-129.08"/>
<text text-anchor="middle" x="205.32" y="-132.88" font-family="Times,serif" font-size="14.00">readwise</text>
<text text-anchor="middle" x="205.32" y="-117.88" font-family="Times,serif" font-size="14.00">(extract)</text>
</g>
<!-- neoreader_consume&#45;&gt;readwise_extract -->
<g id="edge4" class="edge">
<title>neoreader_consume&#45;&gt;readwise_extract</title>
<path fill="none" stroke="black" d="M205.32,-196.01C205.32,-187.95 205.32,-179.11 205.32,-170.59"/>
<polygon fill="black" stroke="black" points="208.82,-170.43 205.32,-160.43 201.82,-170.43 208.82,-170.43"/>
</g>
<!-- obsidian_refine -->
<g id="node9" class="node">
<title>obsidian_refine</title>
<polygon fill="lightgreen" stroke="black" points="199.07,-31.03 173.69,-62.08 122.95,-62.08 97.57,-31.03 122.95,0.03 173.69,0.03 199.07,-31.03"/>
<text text-anchor="middle" x="148.32" y="-34.83" font-family="Times,serif" font-size="14.00">obsidian</text>
<text text-anchor="middle" x="148.32" y="-19.83" font-family="Times,serif" font-size="14.00">(refine)</text>
</g>
<!-- readwise_extract&#45;&gt;obsidian_refine -->
<g id="edge5" class="edge">
<title>readwise_extract&#45;&gt;obsidian_refine</title>
<path fill="none" stroke="black" d="M187.44,-97.95C182.4,-89.45 176.83,-80.08 171.53,-71.13"/>
<polygon fill="black" stroke="black" points="174.44,-69.19 166.33,-62.38 168.42,-72.76 174.44,-69.19"/>
</g>
<!-- recall_refine -->
<g id="node10" class="node">
<title>recall_refine</title>
<polygon fill="lightgreen" stroke="black" points="309.9,-31.03 286.61,-62.08 240.03,-62.08 216.74,-31.03 240.03,0.03 286.61,0.03 309.9,-31.03"/>
<text text-anchor="middle" x="263.32" y="-34.83" font-family="Times,serif" font-size="14.00">recall</text>
<text text-anchor="middle" x="263.32" y="-19.83" font-family="Times,serif" font-size="14.00">(refine)</text>
</g>
<!-- readwise_extract&#45;&gt;recall_refine -->
<g id="edge14" class="edge">
<title>readwise_extract&#45;&gt;recall_refine</title>
<path fill="none" stroke="black" d="M223.51,-97.95C228.64,-89.45 234.3,-80.08 239.71,-71.13"/>
<polygon fill="black" stroke="black" points="242.82,-72.75 244.99,-62.38 236.83,-69.13 242.82,-72.75"/>
</g>
<!-- source_book -->
<g id="node11" class="node">
<title>source_book</title>
<polygon fill="none" stroke="black" points="92.32,-526.27 38.32,-526.27 38.32,-490.27 92.32,-490.27 92.32,-526.27"/>
<text text-anchor="middle" x="65.32" y="-504.57" font-family="Times,serif" font-size="14.00">Book</text>
</g>
<!-- source_book&#45;&gt;librarything_collect -->
<g id="edge1" class="edge">
<title>source_book&#45;&gt;librarything_collect</title>
<path fill="none" stroke="black" d="M65.32,-490.07C65.32,-482.61 65.32,-473.54 65.32,-464.55"/>
<polygon fill="black" stroke="black" points="68.82,-464.52 65.32,-454.52 61.82,-464.52 68.82,-464.52"/>
</g>
<!-- source_research_paper -->
<g id="node12" class="node">
<title>source_research_paper</title>
<polygon fill="none" stroke="black" points="373.82,-526.27 272.82,-526.27 272.82,-490.27 373.82,-490.27 373.82,-526.27"/>
<text text-anchor="middle" x="323.32" y="-504.57" font-family="Times,serif" font-size="14.00">Research Paper</text>
</g>
<!-- source_research_paper&#45;&gt;recall_collect -->
<g id="edge6" class="edge">
<title>source_research_paper&#45;&gt;recall_collect</title>
<path fill="none" stroke="black" d="M325.39,-490.07C326.29,-482.61 327.38,-473.54 328.47,-464.55"/>
<polygon fill="black" stroke="black" points="331.95,-464.86 329.67,-454.52 325,-464.03 331.95,-464.86"/>
</g>
<!-- source_research_paper&#45;&gt;neoreader_collect -->
<g id="edge7" class="edge">
<title>source_research_paper&#45;&gt;neoreader_collect</title>
<path fill="none" stroke="black" d="M299.57,-490.27C285.34,-480.09 266.84,-466.84 250.14,-454.89"/>
<polygon fill="black" stroke="black" points="251.77,-451.75 241.6,-448.78 247.7,-457.45 251.77,-451.75"/>
</g>
<!-- source_document -->
<g id="node13" class="node">
<title>source_document</title>
<polygon fill="none" stroke="black" points="244.32,-526.27 170.32,-526.27 170.32,-490.27 244.32,-490.27 244.32,-526.27"/>
<text text-anchor="middle" x="207.32" y="-504.57" font-family="Times,serif" font-size="14.00">Document</text>
</g>
<!-- source_document&#45;&gt;neoreader_collect -->
<g id="edge15" class="edge">
<title>source_document&#45;&gt;neoreader_collect</title>
<path fill="none" stroke="black" d="M207.32,-490.07C207.32,-482.61 207.32,-473.54 207.32,-464.55"/>
<polygon fill="black" stroke="black" points="210.82,-464.52 207.32,-454.52 203.82,-464.52 210.82,-464.52"/>
</g>
</g>
</svg>
