<?xml version="1.0" encoding="UTF-8" standalone="no"?>
<!DOCTYPE svg PUBLIC "-//W3C//DTD SVG 1.1//EN"
 "http://www.w3.org/Graphics/SVG/1.1/DTD/svg11.dtd">
<!-- Generated by graphviz version 2.43.0 (0)
 -->
<!-- Title: %3 Pages: 1 -->
<svg width="425pt" height="534pt"
 viewBox="0.00 0.00 425.37 534.27" xmlns="http://www.w3.org/2000/svg" xmlns:xlink="http://www.w3.org/1999/xlink">
<g id="graph0" class="graph" transform="scale(1 1) rotate(0) translate(4 530.27)">
<title>%3</title>
<polygon fill="white" stroke="transparent" points="-4,4 -4,-530.27 421.37,-530.27 421.37,4 -4,4"/>
<!-- librarything_collect -->
<g id="node1" class="node">
<title>librarything_collect</title>
<polygon fill="lightblue" stroke="black" points="145.5,-423.24 109.09,-454.3 36.25,-454.3 -0.17,-423.24 36.25,-392.19 109.09,-392.19 145.5,-423.24"/>
<text text-anchor="middle" x="72.67" y="-427.04" font-family="Times,serif" font-size="14.00">LibraryThing</text>
<text text-anchor="middle" x="72.67" y="-412.04" font-family="Times,serif" font-size="14.00">(collect)</text>
</g>
<!-- librarything_retrieve -->
<g id="node4" class="node">
<title>librarything_retrieve</title>
<polygon fill="orange" stroke="black" points="145.5,-325.19 109.09,-356.24 36.25,-356.24 -0.17,-325.19 36.25,-294.13 109.09,-294.13 145.5,-325.19"/>
<text text-anchor="middle" x="72.67" y="-328.99" font-family="Times,serif" font-size="14.00">LibraryThing</text>
<text text-anchor="middle" x="72.67" y="-313.99" font-family="Times,serif" font-size="14.00">(retrieve)</text>
</g>
<!-- librarything_collect&#45;&gt;librarything_retrieve -->
<g id="edge2" class="edge">
<title>librarything_collect&#45;&gt;librarything_retrieve</title>
<path fill="none" stroke="black" d="M72.67,-392.11C72.67,-384.06 72.67,-375.21 72.67,-366.7"/>
<polygon fill="black" stroke="black" points="76.17,-366.54 72.67,-356.54 69.17,-366.54 76.17,-366.54"/>
</g>
<!-- recall_collect -->
<g id="node2" class="node">
<title>recall_collect</title>
<polygon fill="lightgreen" stroke="black" points="410.41,-423.24 385.04,-454.3 334.3,-454.3 308.92,-423.24 334.3,-392.19 385.04,-392.19 410.41,-423.24"/>
<text text-anchor="middle" x="359.67" y="-427.04" font-family="Times,serif" font-size="14.00">Recall</text>
<text text-anchor="middle" x="359.67" y="-412.04" font-family="Times,serif" font-size="14.00">(collect)</text>
</g>
<!-- recall_retrieve -->
<g id="node5" class="node">
<title>recall_retrieve</title>
<polygon fill="lightgreen" stroke="black" points="417.58,-325.19 390.12,-356.24 335.21,-356.24 307.76,-325.19 335.21,-294.13 390.12,-294.13 417.58,-325.19"/>
<text text-anchor="middle" x="362.67" y="-328.99" font-family="Times,serif" font-size="14.00">Recall</text>
<text text-anchor="middle" x="362.67" y="-313.99" font-family="Times,serif" font-size="14.00">(retrieve)</text>
</g>
<!-- recall_collect&#45;&gt;recall_retrieve -->
<g id="edge8" class="edge">
<title>recall_collect&#45;&gt;recall_retrieve</title>
<path fill="none" stroke="black" d="M360.61,-392.11C360.86,-384.06 361.14,-375.21 361.4,-366.7"/>
<polygon fill="black" stroke="black" points="364.91,-366.64 361.72,-356.54 357.91,-366.43 364.91,-366.64"/>
</g>
<!-- neoreader_retrieve -->
<g id="node6" class="node">
<title>neoreader_retrieve</title>
<polygon fill="orange" stroke="black" points="289.41,-325.19 258.04,-356.24 195.3,-356.24 163.93,-325.19 195.3,-294.13 258.04,-294.13 289.41,-325.19"/>
<text text-anchor="middle" x="226.67" y="-328.99" font-family="Times,serif" font-size="14.00">NeoReader</text>
<text text-anchor="middle" x="226.67" y="-313.99" font-family="Times,serif" font-size="14.00">(retrieve)</text>
</g>
<!-- recall_collect&#45;&gt;neoreader_retrieve -->
<g id="edge10" class="edge">
<title>recall_collect&#45;&gt;neoreader_retrieve</title>
<path fill="none" stroke="black" d="M328.15,-399.48C311.02,-387.11 289.56,-371.61 270.79,-358.05"/>
<polygon fill="black" stroke="black" points="272.82,-355.2 262.66,-352.18 268.72,-360.87 272.82,-355.2"/>
</g>
<!-- neoreader_collect -->
<g id="node3" class="node">
<title>neoreader_collect</title>
<polygon fill="lightblue" stroke="black" points="291.41,-423.24 260.04,-454.3 197.3,-454.3 165.93,-423.24 197.3,-392.19 260.04,-392.19 291.41,-423.24"/>
<text text-anchor="middle" x="228.67" y="-427.04" font-family="Times,serif" font-size="14.00">NeoReader</text>
<text text-anchor="middle" x="228.67" y="-412.04" font-family="Times,serif" font-size="14.00">(collect)</text>
</g>
<!-- neoreader_collect&#45;&gt;recall_retrieve -->
<g id="edge9" class="edge">
<title>neoreader_collect&#45;&gt;recall_retrieve</title>
<path fill="none" stroke="black" d="M264.58,-396.5C281.9,-384.08 302.78,-369.11 320.82,-356.18"/>
<polygon fill="black" stroke="black" points="323.33,-358.69 329.42,-350.02 319.25,-353 323.33,-358.69"/>
</g>
<!-- neoreader_collect&#45;&gt;neoreader_retrieve -->
<g id="edge11" class="edge">
<title>neoreader_collect&#45;&gt;neoreader_retrieve</title>
<path fill="none" stroke="black" d="M228.04,-392.11C227.87,-384.06 227.69,-375.21 227.51,-366.7"/>
<polygon fill="black" stroke="black" points="231.01,-366.46 227.3,-356.54 224.01,-366.61 231.01,-366.46"/>
</g>
<!-- neoreader_consume -->
<g id="node7" class="node">
<title>neoreader_consume</title>
<polygon fill="lightgreen" stroke="black" points="289.41,-227.13 258.04,-258.19 195.3,-258.19 163.93,-227.13 195.3,-196.08 258.04,-196.08 289.41,-227.13"/>
<text text-anchor="middle" x="226.67" y="-230.93" font-family="Times,serif" font-size="14.00">NeoReader</text>
<text text-anchor="middle" x="226.67" y="-215.93" font-family="Times,serif" font-size="14.00">(consume)</text>
</g>
<!-- librarything_retrieve&#45;&gt;neoreader_consume -->
<g id="edge3" class="edge">
<title>librarything_retrieve&#45;&gt;neoreader_consume</title>
<path fill="none" stroke="black" d="M114.34,-298.19C134.61,-285.55 159.04,-270.32 179.94,-257.28"/>
<polygon fill="black" stroke="black" points="182.02,-260.11 188.65,-251.85 178.32,-254.17 182.02,-260.11"/>
</g>
<!-- recall_retrieve&#45;&gt;neoreader_consume -->
<g id="edge12" class="edge">
<title>recall_retrieve&#45;&gt;neoreader_consume</title>
<path fill="none" stroke="black" d="M329.4,-300.69C311.86,-288.31 290.11,-272.94 271.15,-259.55"/>
<polygon fill="black" stroke="black" points="273.12,-256.66 262.94,-253.75 269.08,-262.38 273.12,-256.66"/>
</g>
<!-- neoreader_retrieve&#45;&gt;neoreader_consume -->
<g id="edge13" class="edge">
<title>neoreader_retrieve&#45;&gt;neoreader_consume</title>
<path fill="none" stroke="black" d="M226.67,-294.06C226.67,-286 226.67,-277.16 226.67,-268.64"/>
<polygon fill="black" stroke="black" points="230.17,-268.49 226.67,-258.49 223.17,-268.49 230.17,-268.49"/>
</g>
<!-- readwise_extract -->
<g id="node8" class="node">
<title>readwise_extract</title>
<polygon fill="lightgreen" stroke="black" points="282.85,-129.08 254.76,-160.13 198.58,-160.13 170.49,-129.08 198.58,-98.03 254.76,-98.03 282.85,-129.08"/>
<text text-anchor="middle" x="226.67" y="-132.88" font-family="Times,serif" font-size="14.00">Readwise</text>
<text text-anchor="middle" x="226.67" y="-117.88" font-family="Times,serif" font-size="14.00">(extract)</text>
</g>
<!-- neoreader_consume&#45;&gt;readwise_extract -->
<g id="edge4" class="edge">
<title>neoreader_consume&#45;&gt;readwise_extract</title>
<path fill="none" stroke="black" d="M226.67,-196.01C226.67,-187.95 226.67,-179.11 226.67,-170.59"/>
<polygon fill="black" stroke="black" points="230.17,-170.43 226.67,-160.43 223.17,-170.43 230.17,-170.43"/>
</g>
<!-- obsidian_refine -->
<g id="node9" class="node">
<title>obsidian_refine</title>
<polygon fill="lightgreen" stroke="black" points="220.81,-31.03 194.24,-62.08 141.1,-62.08 114.52,-31.03 141.1,0.03 194.24,0.03 220.81,-31.03"/>
<text text-anchor="middle" x="167.67" y="-34.83" font-family="Times,serif" font-size="14.00">Obsidian</text>
<text text-anchor="middle" x="167.67" y="-19.83" font-family="Times,serif" font-size="14.00">(refine)</text>
</g>
<!-- readwise_extract&#45;&gt;obsidian_refine -->
<g id="edge5" class="edge">
<title>readwise_extract&#45;&gt;obsidian_refine</title>
<path fill="none" stroke="black" d="M208.16,-97.95C202.94,-89.45 197.18,-80.08 191.69,-71.13"/>
<polygon fill="black" stroke="black" points="194.53,-69.07 186.31,-62.38 188.56,-72.73 194.53,-69.07"/>
</g>
<!-- recall_refine -->
<g id="node10" class="node">
<title>recall_refine</title>
<polygon fill="lightgreen" stroke="black" points="332.25,-31.03 308.96,-62.08 262.38,-62.08 239.09,-31.03 262.38,0.03 308.96,0.03 332.25,-31.03"/>
<text text-anchor="middle" x="285.67" y="-34.83" font-family="Times,serif" font-size="14.00">Recall</text>
<text text-anchor="middle" x="285.67" y="-19.83" font-family="Times,serif" font-size="14.00">(refine)</text>
</g>
<!-- readwise_extract&#45;&gt;recall_refine -->
<g id="edge14" class="edge">
<title>readwise_extract&#45;&gt;recall_refine</title>
<path fill="none" stroke="black" d="M245.17,-97.95C250.4,-89.45 256.15,-80.08 261.65,-71.13"/>
<polygon fill="black" stroke="black" points="264.77,-72.73 267.02,-62.38 258.81,-69.07 264.77,-72.73"/>
</g>
<!-- source_book -->
<g id="node11" class="node">
<title>source_book</title>
<polygon fill="none" stroke="black" points="99.67,-526.27 45.67,-526.27 45.67,-490.27 99.67,-490.27 99.67,-526.27"/>
<text text-anchor="middle" x="72.67" y="-504.57" font-family="Times,serif" font-size="14.00">Book</text>
</g>
<!-- source_book&#45;&gt;librarything_collect -->
<g id="edge1" class="edge">
<title>source_book&#45;&gt;librarything_collect</title>
<path fill="none" stroke="black" d="M72.67,-490.07C72.67,-482.61 72.67,-473.54 72.67,-464.55"/>
<polygon fill="black" stroke="black" points="76.17,-464.52 72.67,-454.52 69.17,-464.52 76.17,-464.52"/>
</g>
<!-- source_research_paper -->
<g id="node12" class="node">
<title>source_research_paper</title>
<polygon fill="none" stroke="black" points="397.17,-526.27 296.17,-526.27 296.17,-490.27 397.17,-490.27 397.17,-526.27"/>
<text text-anchor="middle" x="346.67" y="-504.57" font-family="Times,serif" font-size="14.00">Research Paper</text>
</g>
<!-- source_research_paper&#45;&gt;recall_collect -->
<g id="edge6" class="edge">
<title>source_research_paper&#45;&gt;recall_collect</title>
<path fill="none" stroke="black" d="M349.36,-490.07C350.53,-482.61 351.95,-473.54 353.36,-464.55"/>
<polygon fill="black" stroke="black" points="356.84,-464.94 354.93,-454.52 349.92,-463.86 356.84,-464.94"/>
</g>
<!-- source_research_paper&#45;&gt;neoreader_collect -->
<g id="edge7" class="edge">
<title>source_research_paper&#45;&gt;neoreader_collect</title>
<path fill="none" stroke="black" d="M322.5,-490.27C308.38,-480.33 290.1,-467.47 273.44,-455.74"/>
<polygon fill="black" stroke="black" points="275.1,-452.63 264.9,-449.74 271.07,-458.35 275.1,-452.63"/>
</g>
<!-- source_document -->
<g id="node13" class="node">
<title>source_document</title>
<polygon fill="none" stroke="black" points="265.67,-526.27 191.67,-526.27 191.67,-490.27 265.67,-490.27 265.67,-526.27"/>
<text text-anchor="middle" x="228.67" y="-504.57" font-family="Times,serif" font-size="14.00">Document</text>
</g>
<!-- source_document&#45;&gt;neoreader_collect -->
<g id="edge15" class="edge">
<title>source_document&#45;&gt;neoreader_collect</title>
<path fill="none" stroke="black" d="M228.67,-490.07C228.67,-482.61 228.67,-473.54 228.67,-464.55"/>
<polygon fill="black" stroke="black" points="232.17,-464.52 228.67,-454.52 225.17,-464.52 232.17,-464.52"/>
</g>
</g>
</svg>
