<?xml version="1.0" encoding="UTF-8" standalone="no"?>
<!DOCTYPE svg PUBLIC "-//W3C//DTD SVG 1.1//EN"
 "http://www.w3.org/Graphics/SVG/1.1/DTD/svg11.dtd">
<!-- Generated by graphviz version 2.43.0 (0)
 -->
<!-- Title: %3 Pages: 1 -->
<svg width="308pt" height="534pt"
 viewBox="0.00 0.00 308.25 534.27" xmlns="http://www.w3.org/2000/svg" xmlns:xlink="http://www.w3.org/1999/xlink">
<g id="graph0" class="graph" transform="scale(1 1) rotate(0) translate(4 530.27)">
<title>%3</title>
<polygon fill="white" stroke="transparent" points="-4,4 -4,-530.27 304.25,-530.27 304.25,4 -4,4"/>
<!-- recall_collect -->
<g id="node1" class="node">
<title>recall_collect</title>
<polygon fill="lightgreen" stroke="black" points="132.93,-423.24 102.76,-454.3 42.41,-454.3 12.24,-423.24 42.41,-392.19 102.76,-392.19 132.93,-423.24"/>
<text text-anchor="middle" x="72.59" y="-427.04" font-family="Times,serif" font-size="14.00">recall</text>
<text text-anchor="middle" x="72.59" y="-412.04" font-family="Times,serif" font-size="14.00">(collect)</text>
</g>
<!-- recall_retrieve -->
<g id="node3" class="node">
<title>recall_retrieve</title>
<polygon fill="lightgreen" stroke="black" points="137.26,-325.19 102.92,-356.24 34.25,-356.24 -0.09,-325.19 34.25,-294.13 102.92,-294.13 137.26,-325.19"/>
<text text-anchor="middle" x="68.59" y="-328.99" font-family="Times,serif" font-size="14.00">recall</text>
<text text-anchor="middle" x="68.59" y="-313.99" font-family="Times,serif" font-size="14.00">(retrieve)</text>
</g>
<!-- recall_collect&#45;&gt;recall_retrieve -->
<g id="edge3" class="edge">
<title>recall_collect&#45;&gt;recall_retrieve</title>
<path fill="none" stroke="black" d="M71.33,-392.11C71,-384.06 70.63,-375.21 70.27,-366.7"/>
<polygon fill="black" stroke="black" points="73.76,-366.39 69.85,-356.54 66.77,-366.68 73.76,-366.39"/>
</g>
<!-- neoreader_retrieve -->
<g id="node4" class="node">
<title>neoreader_retrieve</title>
<polygon fill="orange" stroke="black" points="300.42,-325.19 264,-356.24 191.17,-356.24 154.75,-325.19 191.17,-294.13 264,-294.13 300.42,-325.19"/>
<text text-anchor="middle" x="227.59" y="-328.99" font-family="Times,serif" font-size="14.00">neoreader</text>
<text text-anchor="middle" x="227.59" y="-313.99" font-family="Times,serif" font-size="14.00">(retrieve)</text>
</g>
<!-- recall_collect&#45;&gt;neoreader_retrieve -->
<g id="edge5" class="edge">
<title>recall_collect&#45;&gt;neoreader_retrieve</title>
<path fill="none" stroke="black" d="M109.71,-399.23C129.95,-386.69 155.29,-370.99 177.28,-357.36"/>
<polygon fill="black" stroke="black" points="179.19,-360.3 185.84,-352.06 175.5,-354.35 179.19,-360.3"/>
</g>
<!-- neoreader_collect -->
<g id="node2" class="node">
<title>neoreader_collect</title>
<polygon fill="lightblue" stroke="black" points="296.42,-423.24 260,-454.3 187.17,-454.3 150.75,-423.24 187.17,-392.19 260,-392.19 296.42,-423.24"/>
<text text-anchor="middle" x="223.59" y="-427.04" font-family="Times,serif" font-size="14.00">neoreader</text>
<text text-anchor="middle" x="223.59" y="-412.04" font-family="Times,serif" font-size="14.00">(collect)</text>
</g>
<!-- neoreader_collect&#45;&gt;recall_retrieve -->
<g id="edge4" class="edge">
<title>neoreader_collect&#45;&gt;recall_retrieve</title>
<path fill="none" stroke="black" d="M182.05,-396.5C162.2,-384.2 138.3,-369.39 117.57,-356.54"/>
<polygon fill="black" stroke="black" points="119.24,-353.46 108.9,-351.17 115.55,-359.41 119.24,-353.46"/>
</g>
<!-- neoreader_collect&#45;&gt;neoreader_retrieve -->
<g id="edge6" class="edge">
<title>neoreader_collect&#45;&gt;neoreader_retrieve</title>
<path fill="none" stroke="black" d="M224.84,-392.11C225.18,-384.06 225.54,-375.21 225.9,-366.7"/>
<polygon fill="black" stroke="black" points="229.4,-366.68 226.32,-356.54 222.41,-366.39 229.4,-366.68"/>
</g>
<!-- neoreader_consume -->
<g id="node5" class="node">
<title>neoreader_consume</title>
<polygon fill="lightgreen" stroke="black" points="221.06,-227.13 184.32,-258.19 110.85,-258.19 74.12,-227.13 110.85,-196.08 184.32,-196.08 221.06,-227.13"/>
<text text-anchor="middle" x="147.59" y="-230.93" font-family="Times,serif" font-size="14.00">neoreader</text>
<text text-anchor="middle" x="147.59" y="-215.93" font-family="Times,serif" font-size="14.00">(consume)</text>
</g>
<!-- recall_retrieve&#45;&gt;neoreader_consume -->
<g id="edge7" class="edge">
<title>recall_retrieve&#45;&gt;neoreader_consume</title>
<path fill="none" stroke="black" d="M93.37,-294.06C100.57,-285.29 108.55,-275.6 116.11,-266.4"/>
<polygon fill="black" stroke="black" points="118.97,-268.43 122.62,-258.49 113.57,-263.99 118.97,-268.43"/>
</g>
<!-- neoreader_retrieve&#45;&gt;neoreader_consume -->
<g id="edge8" class="edge">
<title>neoreader_retrieve&#45;&gt;neoreader_consume</title>
<path fill="none" stroke="black" d="M202.49,-294.06C195.19,-285.29 187.12,-275.6 179.46,-266.4"/>
<polygon fill="black" stroke="black" points="181.95,-263.93 172.86,-258.49 176.58,-268.41 181.95,-263.93"/>
</g>
<!-- readwise_extract -->
<g id="node6" class="node">
<title>readwise_extract</title>
<polygon fill="lightgreen" stroke="black" points="213.86,-129.08 180.72,-160.13 114.45,-160.13 81.31,-129.08 114.45,-98.03 180.72,-98.03 213.86,-129.08"/>
<text text-anchor="middle" x="147.59" y="-132.88" font-family="Times,serif" font-size="14.00">readwise</text>
<text text-anchor="middle" x="147.59" y="-117.88" font-family="Times,serif" font-size="14.00">(extract)</text>
</g>
<!-- neoreader_consume&#45;&gt;readwise_extract -->
<g id="edge9" class="edge">
<title>neoreader_consume&#45;&gt;readwise_extract</title>
<path fill="none" stroke="black" d="M147.59,-196.01C147.59,-187.95 147.59,-179.11 147.59,-170.59"/>
<polygon fill="black" stroke="black" points="151.09,-170.43 147.59,-160.43 144.09,-170.43 151.09,-170.43"/>
</g>
<!-- obsidian_refine -->
<g id="node7" class="node">
<title>obsidian_refine</title>
<polygon fill="lightgreen" stroke="black" points="142.33,-31.03 110.96,-62.08 48.22,-62.08 16.84,-31.03 48.22,0.03 110.96,0.03 142.33,-31.03"/>
<text text-anchor="middle" x="79.59" y="-34.83" font-family="Times,serif" font-size="14.00">obsidian</text>
<text text-anchor="middle" x="79.59" y="-19.83" font-family="Times,serif" font-size="14.00">(refine)</text>
</g>
<!-- readwise_extract&#45;&gt;obsidian_refine -->
<g id="edge10" class="edge">
<title>readwise_extract&#45;&gt;obsidian_refine</title>
<path fill="none" stroke="black" d="M126.26,-97.95C120.11,-89.27 113.33,-79.69 106.88,-70.57"/>
<polygon fill="black" stroke="black" points="109.71,-68.52 101.07,-62.38 103.99,-72.56 109.71,-68.52"/>
</g>
<!-- recall_refine -->
<g id="node8" class="node">
<title>recall_refine</title>
<polygon fill="lightgreen" stroke="black" points="271.13,-31.03 243.36,-62.08 187.81,-62.08 160.04,-31.03 187.81,0.03 243.36,0.03 271.13,-31.03"/>
<text text-anchor="middle" x="215.59" y="-34.83" font-family="Times,serif" font-size="14.00">recall</text>
<text text-anchor="middle" x="215.59" y="-19.83" font-family="Times,serif" font-size="14.00">(refine)</text>
</g>
<!-- readwise_extract&#45;&gt;recall_refine -->
<g id="edge11" class="edge">
<title>readwise_extract&#45;&gt;recall_refine</title>
<path fill="none" stroke="black" d="M168.91,-97.95C175.06,-89.27 181.84,-79.69 188.3,-70.57"/>
<polygon fill="black" stroke="black" points="191.18,-72.56 194.1,-62.38 185.46,-68.52 191.18,-72.56"/>
</g>
<!-- source_research_paper -->
<g id="node9" class="node">
<title>source_research_paper</title>
<polygon fill="none" stroke="black" points="211.59,-526.27 83.59,-526.27 83.59,-490.27 211.59,-490.27 211.59,-526.27"/>
<text text-anchor="middle" x="147.59" y="-504.57" font-family="Times,serif" font-size="14.00">Research Paper</text>
</g>
<!-- source_research_paper&#45;&gt;recall_collect -->
<g id="edge1" class="edge">
<title>source_research_paper&#45;&gt;recall_collect</title>
<path fill="none" stroke="black" d="M132.05,-490.07C124.66,-481.89 115.52,-471.77 106.64,-461.94"/>
<polygon fill="black" stroke="black" points="109.23,-459.59 99.93,-454.52 104.04,-464.28 109.23,-459.59"/>
</g>
<!-- source_research_paper&#45;&gt;neoreader_collect -->
<g id="edge2" class="edge">
<title>source_research_paper&#45;&gt;neoreader_collect</title>
<path fill="none" stroke="black" d="M163.33,-490.07C170.82,-481.89 180.08,-471.77 189.08,-461.94"/>
<polygon fill="black" stroke="black" points="191.7,-464.26 195.87,-454.52 186.54,-459.53 191.7,-464.26"/>
</g>
</g>
</svg>
